<?xml version="1.0" encoding="UTF-8"?>
<svg version="1.1" xmlns="http://www.w3.org/2000/svg" width="500" height="500">
<path d="M0 0 C2.56016469 0.00504221 5.12033016 0.0096972 7.68049622 0.01399231 C13.09611163 0.02400653 18.51170512 0.03726591 23.92730713 0.05279541 C29.43931087 0.06839036 34.95129431 0.07891007 40.46331787 0.08392334 C41.1387024 0.08453809 41.81408692 0.08515284 42.50993764 0.08578622 C43.87531423 0.08700504 45.24069082 0.08821696 46.60606742 0.08942199 C59.71023848 0.10147202 72.81409254 0.1401949 85.91810417 0.20632744 C92.96407829 0.24134069 100.00984164 0.26639885 107.0559082 0.26977539 C113.38478932 0.27283008 119.71333438 0.2934098 126.04208547 0.33474332 C129.33777746 0.35572088 132.63290265 0.36617033 135.92867088 0.36037254 C153.48908778 0.33653204 168.96316095 0.6240916 183.26171875 12.07421875 C183.94621094 12.59757812 184.63070313 13.1209375 185.3359375 13.66015625 C199.88928676 25.46915965 208.50413945 45.8896228 217.61987305 61.93481445 C221.45180834 68.67681353 225.345083 75.38111154 229.26171875 82.07421875 C234.1297928 90.39632623 238.94426892 98.74637186 243.71386719 107.12524414 C248.19661309 114.98792088 252.75792654 122.80383737 257.32763672 130.61621094 C261.00045372 136.89874177 264.62135899 143.20642673 268.20703125 149.5390625 C269.79914679 152.31192971 271.45601233 155.04077793 273.12890625 157.765625 C278.06357005 165.81704107 282.86034365 173.83541975 286.88671875 182.38671875 C287.20511719 183.06130127 287.52351563 183.73588379 287.8515625 184.4309082 C294.36494889 198.71122093 295.11585076 214.82859021 290.40234375 229.8046875 C283.98246579 246.29633052 273.85311549 261.59579078 264.9296875 276.80859375 C261.19845869 283.1719297 257.50700532 289.55775249 253.82421875 295.94921875 C253.20554932 297.02244385 252.58687988 298.09566895 251.94946289 299.20141602 C249.39923167 303.62637964 246.85028082 308.0520797 244.30175781 312.47802734 C242.3515142 315.86460556 240.40062509 319.25081039 238.44921875 322.63671875 C237.81910889 323.73008545 237.18899902 324.82345215 236.53979492 325.94995117 C232.71894408 332.5718528 228.85913267 339.16877584 224.9609375 345.74536133 C222.10553231 350.58440429 219.34460181 355.47225047 216.60107422 360.37548828 C188.89358719 409.83617824 188.89358719 409.83617824 162.4921875 418.53125 C156.81964599 419.91213138 151.17677384 420.2218266 145.36347961 420.21466064 C144.59825759 420.21763177 143.83303556 420.22060289 143.04462498 420.22366405 C140.49629143 420.23229277 137.94800517 420.23385432 135.3996582 420.23535156 C133.5659017 420.23998387 131.73214616 420.24500908 129.89839172 420.25039673 C124.92708503 420.26348297 119.95579182 420.26995829 114.98447061 420.27440739 C111.87451959 420.2773442 108.76457221 420.28145015 105.65462303 420.28591156 C95.91242659 420.29957651 86.17023853 420.30924808 76.42803317 420.31311345 C65.20409973 420.31759194 53.98028821 420.33513438 42.75639182 420.36411405 C34.06568668 420.38576981 25.37501574 420.39581981 16.68428391 420.39715457 C11.50059354 420.3981998 6.31701792 420.40404746 1.13335609 420.42197418 C-3.74634708 420.43852232 -8.62585003 420.44057779 -13.50557137 420.43183517 C-15.28886834 420.4310684 -17.07217639 420.43535964 -18.85544586 420.44529343 C-37.83878957 420.54477547 -54.03041325 416.95378158 -68.359375 403.67578125 C-75.3447915 396.0365573 -80.60002375 387.57544949 -85.73828125 378.63671875 C-86.48430649 377.35018153 -87.23089897 376.06397308 -87.97802734 374.77807617 C-89.87655892 371.50670507 -91.76718681 368.23084756 -93.65515137 364.95336914 C-95.31728373 362.06969219 -96.98512938 359.18933551 -98.65234375 356.30859375 C-101.74016058 350.96823552 -104.81926705 345.62291196 -107.89550781 340.27587891 C-111.00535762 334.87278267 -114.12220147 329.47372357 -117.23828125 324.07421875 C-118.48831412 321.90757105 -119.73831414 319.74090439 -120.98828125 317.57421875 C-121.60703125 316.50171875 -122.22578125 315.42921875 -122.86328125 314.32421875 C-128.48828125 304.57421875 -128.48828125 304.57421875 -130.36450195 301.32202148 C-131.61033895 299.1626248 -132.85626943 297.00328206 -134.10229492 294.84399414 C-137.29177078 289.31654278 -140.4794501 283.78806754 -143.6640625 278.2578125 C-144.30931885 277.13793945 -144.9545752 276.01806641 -145.61938477 274.86425781 C-146.89545201 272.64924638 -148.17069537 270.43376007 -149.44506836 268.21777344 C-152.15798061 263.50824128 -154.88188383 258.80891933 -157.69140625 254.15625 C-169.53097423 234.54420696 -176.50024978 215.85592903 -170.8828125 192.66796875 C-166.29577463 178.26498296 -157.25615377 165.21235763 -149.62792969 152.2890625 C-146.48644904 146.94448664 -143.39397359 141.57183972 -140.30078125 136.19921875 C-139.68235352 135.12631592 -139.06392578 134.05341309 -138.42675781 132.94799805 C-135.87615248 128.52278374 -133.32704491 124.09670791 -130.77832031 119.67041016 C-124.00583882 107.91006488 -117.22273692 96.15794798 -110.328125 84.46875 C-99.17552768 65.57410025 -99.17552768 65.57410025 -88.42578125 46.44921875 C-77.40985435 26.44579341 -65.93746392 10.04180991 -43.7109375 1.94921875 C-29.89540992 -1.63089663 -14.13088817 -0.04662747 0 0 Z M52.26171875 74.07421875 C50.78507758 77.03577002 50.78507758 77.03577002 49.75390625 80.31640625 C49.33044922 81.53634277 48.90699219 82.7562793 48.47070312 84.01318359 C48.25373779 84.65519714 48.03677246 85.29721069 47.81323242 85.9586792 C39.29248301 111.02970055 28.56943657 133.6614073 10.26171875 153.07421875 C9.27187552 154.25283404 8.29085249 155.43899473 7.32421875 156.63671875 C5.26171875 159.07421875 5.26171875 159.07421875 3.26171875 160.07421875 C3.26171875 160.73421875 3.26171875 161.39421875 3.26171875 162.07421875 C2.65972656 162.35265625 2.05773437 162.63109375 1.4375 162.91796875 C-0.98517607 164.09570579 -0.98517607 164.09570579 -3.55078125 166.57421875 C-21.64871694 182.36177967 -44.52426271 191.20163821 -66.99804688 198.6796875 C-74.9143328 201.37828971 -74.9143328 201.37828971 -80.73828125 207.07421875 C-81.5086094 209.08310392 -81.5086094 209.08310392 -81.36328125 211.07421875 C-81.37617187 211.71359375 -81.3890625 212.35296875 -81.40234375 213.01171875 C-80.35152893 216.27542597 -78.48193657 218.15887955 -75.73828125 220.07421875 C-72.16404983 221.76098537 -68.47126292 223.03492176 -64.73828125 224.32421875 C-62.56900382 225.10836823 -60.4010555 225.89620321 -58.234375 226.6875 C-57.14495605 227.08404785 -56.05553711 227.4805957 -54.93310547 227.88916016 C-35.86977442 234.96033614 -18.02023786 243.45544039 -2.73828125 257.07421875 C-1.90039062 257.79222656 -1.0625 258.51023437 -0.19921875 259.25 C23.06984312 279.52938364 35.96655041 304.50312185 46.59765625 332.94921875 C47.05366211 334.16867187 47.50966797 335.388125 47.97949219 336.64453125 C48.78724096 338.80509003 49.59287897 340.96644024 50.39550781 343.12890625 C50.90549316 344.46308594 50.90549316 344.46308594 51.42578125 345.82421875 C51.71146973 346.5821875 51.9971582 347.34015625 52.29150391 348.12109375 C53.35811001 350.26826256 54.41698979 351.55088924 56.26171875 353.07421875 C59.94815315 354.22110945 61.78641483 354.24197308 65.44921875 352.94921875 C70.56777372 349.53684877 71.96916091 344.39607075 73.82421875 338.76171875 C85.53952178 304.59271845 102.31576289 274.4198605 131.26171875 252.07421875 C132.421875 251.17316406 132.421875 251.17316406 133.60546875 250.25390625 C146.88455935 240.47649365 161.72063692 233.57484892 177.16796875 228.03125 C179.31927379 227.25878385 181.46881916 226.48140186 183.61669922 225.69946289 C185.75671267 224.9221622 187.90147478 224.15778325 190.05126953 223.40795898 C195.54831406 221.41468751 199.74257455 219.8620673 203.26171875 215.07421875 C204.24228713 211.60997388 203.8669778 208.24080341 202.19213867 205.01269531 C199.49837372 202.30768788 196.41154395 201.32680139 192.875 200.12109375 C192.14033005 199.85717834 191.4056601 199.59326294 190.64872742 199.3213501 C188.29471547 198.47669561 185.9353127 197.64885044 183.57421875 196.82421875 C171.67919305 192.65487999 160.38878758 188.01544052 149.26171875 182.07421875 C148.61498199 181.72941467 147.96824524 181.3846106 147.3019104 181.02935791 C138.23202033 176.17034047 129.72845011 170.8212953 122.5859375 163.3125 C121.32041202 161.84654913 121.32041202 161.84654913 119.26171875 162.07421875 C119.26171875 161.41421875 119.26171875 160.75421875 119.26171875 160.07421875 C117.6713529 158.54404514 117.6713529 158.54404514 115.63671875 156.94921875 C111.93720825 153.83349626 109.19918095 150.56875109 106.48828125 146.578125 C106.08351563 146.08183594 105.67875 145.58554688 105.26171875 145.07421875 C104.60171875 145.07421875 103.94171875 145.07421875 103.26171875 145.07421875 C102.85759766 143.96046875 102.85759766 143.96046875 102.4453125 142.82421875 C101.30571928 140.17645101 100.07988513 138.34070249 98.32421875 136.07421875 C85.76603861 118.31596402 78.61803724 97.81506403 71.34448242 77.51416016 C69.92086148 73.54168156 69.92086148 73.54168156 67.57421875 70.07421875 C60.53604168 67.03068272 57.04965821 68.66562904 52.26171875 74.07421875 Z " fill="#2E4D92" transform="translate(189.73828125,37.92578125)"/>
<path d="M0 0 C0.33 0.99 0.66 1.98 1 3 C-0.26294305 5.50427094 -1.58452687 7.81307402 -3.0625 10.1875 C-3.98940559 11.71546434 -4.91511658 13.24415379 -5.83984375 14.7734375 C-6.34628418 15.60584961 -6.85272461 16.43826172 -7.37451172 17.29589844 C-9.73582878 21.22409726 -12.01813616 25.19677175 -14.30786133 29.16699219 C-26.85748314 50.89066912 -37.74523848 69.2154977 -62.76953125 77.45703125 C-68.44207276 78.83791263 -74.08494491 79.14760785 -79.89823914 79.14044189 C-80.66346116 79.14341302 -81.42868319 79.14638414 -82.21709377 79.1494453 C-84.76542732 79.15807402 -87.31371358 79.15963557 -89.86206055 79.16113281 C-91.69581705 79.16576512 -93.52957259 79.17079033 -95.36332703 79.17617798 C-100.33463372 79.18926422 -105.30592693 79.19573954 -110.27724814 79.20018864 C-113.38719916 79.20312545 -116.49714654 79.2072314 -119.60709572 79.21169281 C-129.34929216 79.22535776 -139.09148022 79.23502933 -148.83368558 79.2388947 C-160.05761902 79.24337319 -171.28143054 79.26091563 -182.50532693 79.2898953 C-191.19603207 79.31155106 -199.88670301 79.32160106 -208.57743484 79.32293582 C-213.76112521 79.32398105 -218.94470083 79.32982871 -224.12836266 79.34775543 C-229.00806583 79.36430357 -233.88756878 79.36635904 -238.76729012 79.35761642 C-240.55058709 79.35684965 -242.33389514 79.36114089 -244.11716461 79.37107468 C-256.89359994 79.43802947 -268.13941284 78.42491809 -279.6875 72.4375 C-280.59532227 71.98213867 -280.59532227 71.98213867 -281.52148438 71.51757812 C-285.85825893 69.28348214 -285.85825893 69.28348214 -287 67 C-282.25 67.875 -282.25 67.875 -280 69 C-278.54420833 69.15176207 -277.08513139 69.27313037 -275.625 69.375 C-271.87081198 69.74258502 -269.83414765 70.39258416 -267 73 C-266.34 73 -265.68 73 -265 73 C-264.505 71.515 -264.505 71.515 -264 70 C-263.01 70 -262.02 70 -261 70 C-261.66 71.65 -262.32 73.3 -263 75 C-262.26687592 74.99777939 -261.53375183 74.99555878 -260.77841187 74.99327087 C-253.80732259 74.97308113 -246.83624375 74.95793182 -239.86513329 74.94818783 C-236.28279733 74.94300967 -232.70048591 74.93600632 -229.11816406 74.92456055 C-225.64923493 74.91354875 -222.18032911 74.90768521 -218.71138382 74.90512276 C-216.7697701 74.90242548 -214.82816552 74.89464391 -212.88656616 74.88670349 C-205.60376602 74.88625269 -198.42327579 75.18327631 -191.1678772 75.82740784 C-186.86243527 76.06197676 -182.69858856 75.6630673 -178.4140625 75.26171875 C-174.60581084 74.96978184 -170.81716515 74.88189019 -167 74.875 C-165.783125 74.87242187 -164.56625 74.86984375 -163.3125 74.8671875 C-159.93266242 74.92501819 -156.59700418 75.20040702 -153.23046875 75.5 C-145.12629929 76.15267695 -137.04312985 76.15021216 -128.91821289 76.13037109 C-126.33408646 76.1250445 -123.75013657 76.13033032 -121.16601562 76.13671875 C-112.12012406 76.14000421 -103.12964427 75.91467636 -94.10069275 75.35612488 C-88.68274519 75.02217763 -83.30146555 74.87325223 -77.875 74.9375 C-77.09769531 74.94201172 -76.32039062 74.94652344 -75.51953125 74.95117188 C-73.67965056 74.96252916 -71.83981164 74.98042754 -70 75 C-69.67 73.68 -69.34 72.36 -69 71 C-67.35 71.33 -65.7 71.66 -64 72 C-63.01 70.515 -63.01 70.515 -62 69 C-60.01171875 68.7421875 -60.01171875 68.7421875 -57.6875 68.875 C-54.27992658 68.9959139 -51.32808692 68.85886114 -48 68 C-47.95875 67.236875 -47.9175 66.47375 -47.875 65.6875 C-47 63 -47 63 -44.1875 61.5625 C-43.135625 61.046875 -42.08375 60.53125 -41 60 C-40.319375 58.96875 -39.63875 57.9375 -38.9375 56.875 C-37 54 -37 54 -34.37890625 53.3203125 C-33.59386719 53.21460938 -32.80882812 53.10890625 -32 53 C-31.97421875 52.22914063 -31.9484375 51.45828125 -31.921875 50.6640625 C-31.86515625 49.66117187 -31.8084375 48.65828125 -31.75 47.625 C-31.70359375 46.62726563 -31.6571875 45.62953125 -31.609375 44.6015625 C-31.40828125 43.74304688 -31.2071875 42.88453125 -31 42 C-29.1171875 40.875 -29.1171875 40.875 -27 40 C-25.54817111 38.29668376 -25.54817111 38.29668376 -24.375 36.375 C-23.1484375 34.4609375 -23.1484375 34.4609375 -22 33 C-21.34 33 -20.68 33 -20 33 C-19.67 32.01 -19.34 31.02 -19 30 C-18.34 30.33 -17.68 30.66 -17 31 C-16.74605469 30.32195312 -16.49210937 29.64390625 -16.23046875 28.9453125 C-14.78284567 25.48020837 -13.08278291 22.18243345 -11.3125 18.875 C-10.78946289 17.89454712 -10.78946289 17.89454712 -10.25585938 16.89428711 C-7.11317795 11.07563803 -3.66381875 5.50717756 0 0 Z " fill="#85A6CE" transform="translate(415,379)"/>
<path d="M0 0 C2.56016469 0.00504221 5.12033016 0.0096972 7.68049622 0.01399231 C13.09611163 0.02400653 18.51170512 0.03726591 23.92730713 0.05279541 C29.43931087 0.06839036 34.95129431 0.07891007 40.46331787 0.08392334 C41.1387024 0.08453809 41.81408692 0.08515284 42.50993764 0.08578622 C43.87531423 0.08700504 45.24069082 0.08821696 46.60606742 0.08942199 C59.71023848 0.10147202 72.81409254 0.1401949 85.91810417 0.20632744 C92.96407829 0.24134069 100.00984164 0.26639885 107.0559082 0.26977539 C113.38478932 0.27283008 119.71333438 0.2934098 126.04208547 0.33474332 C129.33777746 0.35572088 132.63290265 0.36617033 135.92867088 0.36037254 C153.46959515 0.3365585 168.98762469 0.60998572 183.26171875 12.07421875 C184.30585937 12.8940625 184.30585937 12.8940625 185.37109375 13.73046875 C190.12064641 17.65867019 193.78218899 21.99990452 197.26171875 27.07421875 C196.93171875 27.73421875 196.60171875 28.39421875 196.26171875 29.07421875 C195.56949219 28.130625 195.56949219 28.130625 194.86328125 27.16796875 C189.97899646 20.75855156 184.82340514 15.745618 178.26171875 11.07421875 C177.689375 10.66429687 177.11703125 10.254375 176.52734375 9.83203125 C165.39766073 2.7244614 152.88869947 2.50246987 140.18994141 2.60424805 C138.40629956 2.60373819 136.6226575 2.60147571 134.83901978 2.59761047 C130.03353406 2.59222934 125.22843951 2.61149738 120.4230237 2.63571143 C115.37882026 2.65712874 110.33461644 2.65641749 105.29037476 2.65840149 C96.82909481 2.66483096 88.36796039 2.6860136 79.90673828 2.7175293 C69.05536275 2.75789519 58.20408167 2.7752327 47.35264015 2.78483868 C38.00235509 2.7931461 28.65208987 2.8103729 19.30182219 2.82987618 C17.29936897 2.83392061 15.29691512 2.83766087 13.29446077 2.84109855 C7.58985051 2.85090295 1.88529628 2.86543333 -3.81927872 2.88793755 C-5.54500574 2.89404118 -7.27073949 2.89850174 -8.99647522 2.90118027 C-11.35587835 2.90518521 -13.71517877 2.91532542 -16.07455444 2.92704773 C-18.05274453 2.93345795 -18.05274453 2.93345795 -20.07089806 2.93999767 C-25.89709821 3.15322842 -31.31212033 3.87791552 -36.73828125 6.07421875 C-37.06828125 6.73421875 -37.39828125 7.39421875 -37.73828125 8.07421875 C-39.13046875 8.01234375 -39.13046875 8.01234375 -40.55078125 7.94921875 C-43.89637844 7.80285536 -43.89637844 7.80285536 -46.73828125 10.07421875 C-47.72828125 9.57921875 -47.72828125 9.57921875 -48.73828125 9.07421875 C-49.46015625 9.81671875 -50.18203125 10.55921875 -50.92578125 11.32421875 C-54.51877625 14.83736941 -57.99482704 17.71654746 -62.42578125 20.07421875 C-65.55777545 21.96523411 -66.6489996 22.68534251 -67.73828125 26.07421875 C-68.72828125 26.07421875 -69.71828125 26.07421875 -70.73828125 26.07421875 C-70.53203125 26.65171875 -70.32578125 27.22921875 -70.11328125 27.82421875 C-69.65166864 30.59389442 -70.3088318 31.71983142 -71.73828125 34.07421875 C-72.72828125 33.74421875 -73.71828125 33.41421875 -74.73828125 33.07421875 C-76.85847174 35.95688993 -76.85847174 35.95688993 -77.73828125 39.19921875 C-78.73828125 42.07421875 -78.73828125 42.07421875 -80.73828125 43.07421875 C-81.00640625 43.96109375 -81.27453125 44.84796875 -81.55078125 45.76171875 C-82.62925939 48.77010515 -83.31668421 49.93354935 -85.36328125 52.19921875 C-88.16286888 54.96667517 -88.16286888 54.96667517 -87.73828125 59.07421875 C-88.39828125 59.07421875 -89.05828125 59.07421875 -89.73828125 59.07421875 C-89.73828125 59.73421875 -89.73828125 60.39421875 -89.73828125 61.07421875 C-90.72828125 61.73421875 -91.71828125 62.39421875 -92.73828125 63.07421875 C-93.35127688 65.43179969 -93.35127688 65.43179969 -93.61328125 68.07421875 C-94.078125 70.8125 -94.078125 70.8125 -94.73828125 73.07421875 C-97.17578125 74.26171875 -97.17578125 74.26171875 -99.73828125 75.07421875 C-100.23328125 76.22921875 -100.72828125 77.38421875 -101.23828125 78.57421875 C-101.73328125 79.72921875 -102.22828125 80.88421875 -102.73828125 82.07421875 C-103.52589844 82.35007812 -104.31351563 82.6259375 -105.125 82.91015625 C-108.77681771 84.53682542 -109.41370445 86.62049271 -111.05078125 90.19921875 C-111.56253906 91.29492188 -112.07429688 92.390625 -112.6015625 93.51953125 C-113.16423828 94.78410156 -113.16423828 94.78410156 -113.73828125 96.07421875 C-114.39828125 96.07421875 -115.05828125 96.07421875 -115.73828125 96.07421875 C-114.38920869 91.48324222 -112.52083256 87.81284877 -109.98828125 83.76171875 C-105.79593218 76.94871518 -101.87164502 70.00476773 -97.98828125 63.01171875 C-69.47708215 11.91708577 -69.47708215 11.91708577 -43.36328125 1.76171875 C-29.19403978 -0.92555118 -14.35003285 -0.04735058 0 0 Z " fill="#ACB7DA" transform="translate(189.73828125,37.92578125)"/>
<path d="M0 0 C0.33 0.99 0.66 1.98 1 3 C-0.26294305 5.50427094 -1.58452687 7.81307402 -3.0625 10.1875 C-3.98940559 11.71546434 -4.91511658 13.24415379 -5.83984375 14.7734375 C-6.34628418 15.60584961 -6.85272461 16.43826172 -7.37451172 17.29589844 C-9.73582878 21.22409726 -12.01813616 25.19677175 -14.30786133 29.16699219 C-26.85748314 50.89066912 -37.74523848 69.2154977 -62.76953125 77.45703125 C-68.44207276 78.83791263 -74.08494491 79.14760785 -79.89823914 79.14044189 C-80.66346116 79.14341302 -81.42868319 79.14638414 -82.21709377 79.1494453 C-84.76542732 79.15807402 -87.31371358 79.15963557 -89.86206055 79.16113281 C-91.69581705 79.16576512 -93.52957259 79.17079033 -95.36332703 79.17617798 C-100.33463372 79.18926422 -105.30592693 79.19573954 -110.27724814 79.20018864 C-113.38719916 79.20312545 -116.49714654 79.2072314 -119.60709572 79.21169281 C-129.34929216 79.22535776 -139.09148022 79.23502933 -148.83368558 79.2388947 C-160.05761902 79.24337319 -171.28143054 79.26091563 -182.50532693 79.2898953 C-191.19603207 79.31155106 -199.88670301 79.32160106 -208.57743484 79.32293582 C-213.76112521 79.32398105 -218.94470083 79.32982871 -224.12836266 79.34775543 C-229.00806583 79.36430357 -233.88756878 79.36635904 -238.76729012 79.35761642 C-240.55058709 79.35684965 -242.33389514 79.36114089 -244.11716461 79.37107468 C-253.85093107 79.42208439 -262.63365589 79.05390066 -272 76 C-268.87396863 74.99873536 -267.00205748 75.07253858 -263.85621643 75.9223175 C-256.09085621 77.60344076 -248.20333101 77.27069626 -240.30053711 77.24291992 C-238.5205834 77.24399439 -236.74063003 77.2459355 -234.9606781 77.24867249 C-230.15086708 77.25349738 -225.34114961 77.24589473 -220.5313499 77.23571944 C-215.48538374 77.22689961 -210.43942017 77.22869715 -205.39344788 77.2290802 C-196.92268317 77.2281453 -188.4519544 77.21948464 -179.98120117 77.20581055 C-170.20183341 77.19008186 -160.42250497 77.18481274 -150.64312547 77.1855461 C-140.20980408 77.18622271 -129.77649774 77.17927581 -119.34318089 77.1700995 C-116.34597863 77.1679731 -113.3487788 77.16725899 -110.35157585 77.16686058 C-105.63440207 77.1658525 -100.917261 77.15971796 -96.20009804 77.14969444 C-94.47359798 77.14678583 -92.74709415 77.14554073 -91.02059174 77.14612198 C-74.4585893 77.21365642 -74.4585893 77.21365642 -58.5625 73 C-57.85673828 72.72671875 -57.15097656 72.4534375 -56.42382812 72.171875 C-53.90675803 71.19101101 -51.41751317 70.20875658 -49 69 C-48.62875 67.576875 -48.62875 67.576875 -48.25 66.125 C-46.61955382 62.04888455 -44.86310042 61.8542882 -41 60 C-40.319375 58.96875 -39.63875 57.9375 -38.9375 56.875 C-37 54 -37 54 -34.37890625 53.3203125 C-33.59386719 53.21460938 -32.80882812 53.10890625 -32 53 C-31.97421875 52.22914063 -31.9484375 51.45828125 -31.921875 50.6640625 C-31.86515625 49.66117187 -31.8084375 48.65828125 -31.75 47.625 C-31.70359375 46.62726563 -31.6571875 45.62953125 -31.609375 44.6015625 C-31.40828125 43.74304688 -31.2071875 42.88453125 -31 42 C-29.1171875 40.875 -29.1171875 40.875 -27 40 C-25.54817111 38.29668376 -25.54817111 38.29668376 -24.375 36.375 C-23.1484375 34.4609375 -23.1484375 34.4609375 -22 33 C-21.34 33 -20.68 33 -20 33 C-19.67 32.01 -19.34 31.02 -19 30 C-18.34 30.33 -17.68 30.66 -17 31 C-16.74605469 30.32195312 -16.49210938 29.64390625 -16.23046875 28.9453125 C-14.78284567 25.48020837 -13.08278291 22.18243345 -11.3125 18.875 C-10.78946289 17.89454712 -10.78946289 17.89454712 -10.25585938 16.89428711 C-7.11317795 11.07563803 -3.66381875 5.50717756 0 0 Z " fill="#DFEBF9" transform="translate(415,379)"/>
<path d="M0 0 C0.33 0 0.66 0 1 0 C1.44117322 4.49996683 1.52867608 6.34611117 -1.375 9.9375 C-4 12 -4 12 -6 12 C-7.32 15.63 -8.64 19.26 -10 23 C-10.66 23 -11.32 23 -12 23 C-12.2475 23.78375 -12.495 24.5675 -12.75 25.375 C-13.74828477 28.27002582 -14.85755066 31.00387262 -16.0625 33.8125 C-17.74380587 37.9258055 -18.51415962 41.56440432 -18.7265625 45.9921875 C-19 48 -19 48 -20.046875 50.0859375 C-21.34147439 52.68574774 -20.75816024 54.27062312 -20 57 C-20.99 57 -21.98 57 -23 57 C-23.50757862 58.41396902 -24.00574925 59.83131729 -24.5 61.25 C-24.7784375 62.03890625 -25.056875 62.8278125 -25.34375 63.640625 C-26.17864861 66.23412738 -26.17864861 66.23412738 -26 70 C-30.72798461 71.85742252 -34.68485808 72.24255589 -39.75 72.1875 C-41.72226563 72.17783203 -41.72226563 72.17783203 -43.734375 72.16796875 C-47 72 -47 72 -49 71 C-49.6328125 69.15234375 -49.6328125 69.15234375 -50.125 66.9375 C-50.29257813 66.20402344 -50.46015625 65.47054687 -50.6328125 64.71484375 C-50.75398438 64.14894531 -50.87515625 63.58304687 -51 63 C-52.32 63 -53.64 63 -55 63 C-54.9690625 61.4221875 -54.9690625 61.4221875 -54.9375 59.8125 C-54.98896802 56.67295096 -55.26517187 54.03116604 -56 51 C-56.66 51 -57.32 51 -58 51 C-58 49.68 -58 48.36 -58 47 C-58.61875 47.20625 -59.2375 47.4125 -59.875 47.625 C-60.57625 47.74875 -61.2775 47.8725 -62 48 C-62.66 47.34 -63.32 46.68 -64 46 C-63.34 46 -62.68 46 -62 46 C-62.165 45.0925 -62.33 44.185 -62.5 43.25 C-63 40 -63 40 -63 36 C-63.33 35.21625 -63.66 34.4325 -64 33.625 C-65.16078513 30.57793905 -65 28.24295344 -65 25 C-65.92414941 21.72435637 -65.92414941 21.72435637 -67 19 C-67.66 19 -68.32 19 -69 19 C-68.67 17.68 -68.34 16.36 -68 15 C-61.85179235 26.18656693 -57.24067993 37.83280364 -52.8581543 49.79370117 C-49.40619079 61.44479087 -49.40619079 61.44479087 -41.625 69.6875 C-37.21856298 70.06736526 -35.65657237 69.44572318 -32 67 C-30.64392758 64.42866628 -29.71431527 62.22503084 -28.8125 59.5 C-28.22675808 57.8791938 -27.63801412 56.25947054 -27.046875 54.640625 C-26.72654297 53.74794922 -26.40621094 52.85527344 -26.07617188 51.93554688 C-11.89540174 13.25370021 -11.89540174 13.25370021 0 0 Z " fill="#9DA8C7" transform="translate(290,321)"/>
<path d="M0 0 C2.56016469 0.00504221 5.12033016 0.0096972 7.68049622 0.01399231 C13.09611163 0.02400653 18.51170512 0.03726591 23.92730713 0.05279541 C29.43931087 0.06839036 34.95129431 0.07891007 40.46331787 0.08392334 C41.1387024 0.08453809 41.81408692 0.08515284 42.50993764 0.08578622 C43.87531423 0.08700504 45.24069082 0.08821696 46.60606742 0.08942199 C59.71023848 0.10147202 72.81409254 0.1401949 85.91810417 0.20632744 C92.96407829 0.24134069 100.00984164 0.26639885 107.0559082 0.26977539 C113.38478932 0.27283008 119.71333438 0.2934098 126.04208547 0.33474332 C129.33777746 0.35572088 132.63290265 0.36617033 135.92867088 0.36037254 C153.46959515 0.3365585 168.98762469 0.60998572 183.26171875 12.07421875 C183.9578125 12.62078125 184.65390625 13.16734375 185.37109375 13.73046875 C190.12064641 17.65867019 193.78218899 21.99990452 197.26171875 27.07421875 C196.93171875 27.73421875 196.60171875 28.39421875 196.26171875 29.07421875 C195.56949219 28.130625 195.56949219 28.130625 194.86328125 27.16796875 C189.97899646 20.75855156 184.82340514 15.745618 178.26171875 11.07421875 C177.689375 10.66429687 177.11703125 10.254375 176.52734375 9.83203125 C164.96547416 2.44846107 152.06455054 2.49373556 138.89233398 2.55664062 C136.96901929 2.55121008 135.04570877 2.54408222 133.12240601 2.53540039 C127.93441384 2.51727627 122.7467424 2.52418891 117.55874515 2.53691673 C112.10979826 2.54709978 106.66087738 2.53763654 101.21192932 2.53137207 C92.06547149 2.52411167 82.91914321 2.53364175 73.77270508 2.55273438 C63.22127546 2.57450646 52.67015502 2.56744271 42.11873287 2.54542875 C33.03298129 2.52723666 23.94732241 2.52473484 14.8615585 2.53518343 C9.44656344 2.54139659 4.03171338 2.54231403 -1.38327217 2.52903748 C-6.47490051 2.51742379 -11.56613279 2.52560502 -16.65771866 2.5486145 C-18.51841133 2.55387195 -20.37913774 2.55243908 -22.23981667 2.54356384 C-31.60447096 2.50303715 -39.70021249 2.64054688 -48.49671841 6.31507111 C-50.73828125 7.07421875 -50.73828125 7.07421875 -53.73828125 6.07421875 C-51.70645918 5.23740449 -49.66194192 4.43141899 -47.61328125 3.63671875 C-46.47632813 3.18425781 -45.339375 2.73179688 -44.16796875 2.265625 C-30.52723031 -1.97778597 -14.10099598 -0.04652883 0 0 Z " fill="#B7C0D1" transform="translate(189.73828125,37.92578125)"/>
<path d="M0 0 C0.33 0 0.66 0 1 0 C4.94795282 31.09012846 -11.1907393 53.92125795 -26.33203125 79.734375 C-30.06326069 86.09771203 -33.75459103 92.48360338 -37.4375 98.875 C-38.05181885 99.94024902 -38.6661377 101.00549805 -39.29907227 102.10302734 C-42.23661535 107.19844492 -45.1707594 112.29578957 -48.09886169 117.39663696 C-49.46506514 119.77597172 -50.83280256 122.15442282 -52.20071411 124.53277588 C-53.16129865 126.2044039 -54.11962178 127.87733079 -55.07788086 129.55029297 C-57.91109453 134.47582774 -60.75687792 139.33247939 -64 144 C-64.33 143.34 -64.66 142.68 -65 142 C-64.109375 140.15234375 -64.109375 140.15234375 -62.75 137.9375 C-60.93296879 134.81400833 -59.50986512 131.88823917 -58.4375 128.4375 C-56.16588721 121.14041981 -52.67483497 115.02807668 -48 109 C-47.01 108.505 -47.01 108.505 -46 108 C-46 107.01 -46 106.02 -46 105 C-44.515 104.505 -44.515 104.505 -43 104 C-41.74567632 102.33402494 -41.74567632 102.33402494 -40.6953125 100.24609375 C-40.06689453 99.0869043 -40.06689453 99.0869043 -39.42578125 97.90429688 C-38.78189453 96.68323242 -38.78189453 96.68323242 -38.125 95.4375 C-35.26841153 90.10432795 -32.35341525 84.87395148 -29.10742188 79.7668457 C-27.6994563 77.52049498 -26.4327278 75.2149749 -25.1875 72.875 C-22.93332813 68.69359723 -20.61656856 64.55637687 -18.25 60.4375 C-17.57410343 59.25136779 -16.89832614 58.0651676 -16.22265625 56.87890625 C-14.62718682 54.08193733 -13.00310468 51.3031268 -11.37109375 48.52734375 C-1.92339762 32.28970469 -0.428571 18.62981541 0 0 Z " fill="#CDD6E5" transform="translate(481,235)"/>
<path d="M0 0 C0.495 1.485 0.495 1.485 1 3 C-0.26294305 5.50427094 -1.58452687 7.81307402 -3.0625 10.1875 C-3.98940559 11.71546434 -4.91511658 13.24415379 -5.83984375 14.7734375 C-6.59950439 16.02205566 -6.59950439 16.02205566 -7.37451172 17.29589844 C-9.73620384 21.22472119 -12.01889163 25.19801186 -14.30883789 29.16894531 C-29.55288708 55.55453172 -29.55288708 55.55453172 -33.14453125 56.66015625 C-33.75683594 56.77230469 -34.36914062 56.88445312 -35 57 C-35.69937532 58.31647119 -36.36729133 59.65022151 -37 61 C-38.485 61.495 -38.485 61.495 -40 62 C-40 62.66 -40 63.32 -40 64 C-45.41176471 68 -45.41176471 68 -48 68 C-47.875 65.6875 -47.875 65.6875 -47 63 C-45.00892752 61.98234073 -43.00781177 60.98422146 -41 60 C-40.319375 58.96875 -39.63875 57.9375 -38.9375 56.875 C-37 54 -37 54 -34.37890625 53.3203125 C-33.59386719 53.21460938 -32.80882812 53.10890625 -32 53 C-31.97421875 52.22914063 -31.9484375 51.45828125 -31.921875 50.6640625 C-31.86515625 49.66117187 -31.8084375 48.65828125 -31.75 47.625 C-31.68039062 46.12839844 -31.68039062 46.12839844 -31.609375 44.6015625 C-31.40828125 43.74304688 -31.2071875 42.88453125 -31 42 C-29.1171875 40.875 -29.1171875 40.875 -27 40 C-25.54817111 38.29668376 -25.54817111 38.29668376 -24.375 36.375 C-23.1484375 34.4609375 -23.1484375 34.4609375 -22 33 C-21.34 33 -20.68 33 -20 33 C-19.67 32.01 -19.34 31.02 -19 30 C-18.34 30.33 -17.68 30.66 -17 31 C-16.61908203 29.98292969 -16.61908203 29.98292969 -16.23046875 28.9453125 C-14.78284567 25.48020837 -13.08278291 22.18243345 -11.3125 18.875 C-10.96380859 18.22136475 -10.61511719 17.56772949 -10.25585938 16.89428711 C-7.11317795 11.07563803 -3.66381875 5.50717756 0 0 Z " fill="#A5B1D1" transform="translate(415,379)"/>
<path d="M0 0 C4.75 0.875 4.75 0.875 7 2 C8.45579167 2.15176207 9.91486861 2.27313037 11.375 2.375 C15.12918802 2.74258502 17.16585235 3.39258416 20 6 C20.66 6 21.32 6 22 6 C22.33 5.01 22.66 4.02 23 3 C23.99 3 24.98 3 26 3 C25.34 4.65 24.68 6.3 24 8 C25.10301704 7.99666908 25.10301704 7.99666908 26.22831726 7.99327087 C33.21443423 7.97309604 40.20054083 7.95793919 47.18667889 7.94818783 C50.77689053 7.94300578 54.36707778 7.93599495 57.95727539 7.92456055 C61.43268378 7.91356309 64.90806895 7.90768811 68.38349342 7.90512276 C70.33124687 7.9024207 72.27899118 7.89463658 74.22673035 7.88670349 C82.19731274 7.88621014 90.06313407 8.26654978 98 9 C98 9.33 98 9.66 98 10 C93.88759593 10.77111029 89.98727055 11.13405716 85.80541992 11.16113281 C84.59943649 11.17074036 83.39345306 11.1803479 82.15092468 11.19024658 C80.85717422 11.19449646 79.56342377 11.19874634 78.23046875 11.203125 C77.56213831 11.20595238 76.89380787 11.20877975 76.20522499 11.21169281 C72.65837848 11.22664999 69.11157217 11.23589756 65.56469727 11.24023438 C62.6661301 11.24459628 59.7678644 11.25840274 56.86938477 11.28125 C14.06553349 11.61173468 14.06553349 11.61173468 1 2 C0.67 1.34 0.34 0.68 0 0 Z " fill="#7586B2" transform="translate(128,446)"/>
<path d="M0 0 C1.17278847 3.5183654 0.82598398 4.07539821 -0.58984375 7.359375 C-0.95787109 8.22054932 -1.32589844 9.08172363 -1.70507812 9.96899414 C-2.11177734 10.88672607 -2.51847656 11.80445801 -2.9375 12.75 C-3.5572168 14.16430298 -3.5572168 14.16430298 -4.18945312 15.60717773 C-9.8828577 28.43368586 -16.07238531 40.06680572 -25 51 C-25.4964502 51.60859863 -25.99290039 52.21719727 -26.50439453 52.84423828 C-28.09485527 54.78174408 -29.69976663 56.70600472 -31.3125 58.625 C-32.06805176 59.53197632 -32.06805176 59.53197632 -32.83886719 60.45727539 C-35.30761878 63.339547 -37.38284612 65.67686058 -41 67 C-41 67.66 -41 68.32 -41 69 C-53.05376244 80.62774589 -67.96326615 88.94392748 -83 96 C-83.95777344 96.46792969 -84.91554687 96.93585938 -85.90234375 97.41796875 C-91.61196524 100.12934492 -91.61196524 100.12934492 -95 99 C-94.45617676 98.76490723 -93.91235352 98.52981445 -93.35205078 98.28759766 C-87.75479169 95.83812305 -82.28711973 93.20935468 -76.875 90.375 C-76.05966797 89.94840088 -75.24433594 89.52180176 -74.40429688 89.08227539 C-67.59735413 85.45265754 -61.23021371 81.33979534 -54.90625 76.93359375 C-52 75 -52 75 -49 74 C-49 73.34 -49 72.68 -49 72 C-47.5390625 70.4921875 -47.5390625 70.4921875 -45.625 68.875 C-44.99851563 68.33617187 -44.37203125 67.79734375 -43.7265625 67.2421875 C-42 66 -42 66 -40 66 C-39.74476563 65.41347656 -39.48953125 64.82695312 -39.2265625 64.22265625 C-37.87855221 61.77992422 -36.42124029 60.32476943 -34.375 58.4375 C-18.26625655 42.6776824 -8.48401253 20.56730311 0 0 Z " fill="#CED6E6" transform="translate(234,131)"/>
<path d="M0 0 C-0.66 0.66 -1.32 1.32 -2 2 C-3.66666667 2 -5.33333333 2 -7 2 C-10.20898563 2.7913437 -10.20898563 2.7913437 -13 4 C-13.33 4.66 -13.66 5.32 -14 6 C-14.928125 5.95875 -15.85625 5.9175 -16.8125 5.875 C-20.15809719 5.72863661 -20.15809719 5.72863661 -23 8 C-23.66 7.67 -24.32 7.34 -25 7 C-26.0828125 8.11375 -26.0828125 8.11375 -27.1875 9.25 C-30.780495 12.76315066 -34.25654579 15.64232871 -38.6875 18 C-41.8194942 19.89101536 -42.91071835 20.61112376 -44 24 C-44.99 24 -45.98 24 -47 24 C-46.690625 24.86625 -46.690625 24.86625 -46.375 25.75 C-45.91338739 28.51967567 -46.57055055 29.64561267 -48 32 C-49.5625 30.875 -49.5625 30.875 -51 29 C-51.32121607 24.50297505 -49.45679624 21.99334738 -46.6875 18.6875 C-33.40123543 4.71807643 -19.07726576 -1.21769781 0 0 Z " fill="#6D7FBB" transform="translate(166,40)"/>
<path d="M0 0 C1 2 1 2 0.375 5.3125 C-1.14837122 9.39790463 -2.92103659 10.99613325 -6 14 C-7.22039188 16.29183829 -8.09025171 18.55804407 -9 21 C-9.66 21 -10.32 21 -11 21 C-11.66 23.64 -12.32 26.28 -13 29 C-12.01 29.33 -11.02 29.66 -10 30 C-11.09576757 33.2873027 -11.58970032 33.62510784 -14.25 35.5625 C-18.16117903 38.73783349 -19.84607029 42.23056869 -21.76171875 46.828125 C-23 49 -23 49 -24.87890625 49.8828125 C-28.11830051 51.58901279 -29.47561595 54.54940098 -31.25 57.625 C-31.61351562 58.23601562 -31.97703125 58.84703125 -32.3515625 59.4765625 C-33.24359752 60.97893727 -34.12305829 62.48876551 -35 64 C-35.33 63.34 -35.66 62.68 -36 62 C-34.8828125 59.61523438 -34.8828125 59.61523438 -33.125 56.59375 C-32.47635986 55.46936523 -31.82771973 54.34498047 -31.15942383 53.18652344 C-30.43978232 51.95758481 -29.71997027 50.72874605 -29 49.5 C-28.27098639 48.24294311 -27.54272304 46.98545084 -26.81518555 45.72753906 C-25.3057099 43.12007675 -23.79190952 40.51519666 -22.27490234 37.91210938 C-20.09192913 34.16322911 -17.92795382 30.40368076 -15.76953125 26.640625 C-14.45072932 24.34363021 -13.13160956 22.04681816 -11.8125 19.75 C-11.20212891 18.68716797 -10.59175781 17.62433594 -9.96289062 16.52929688 C-6.74498728 10.94897284 -3.45381946 5.43765173 0 0 Z " fill="#7F8DBA" transform="translate(73,134)"/>
<path d="M0 0 C38.28 0 76.56 0 116 0 C116 0.33 116 0.66 116 1 C109.65889178 2.74305247 104.15466279 3.14909143 97.62207031 2.62890625 C95.85231825 2.51481789 94.082327 2.404389 92.31213379 2.29736328 C91.42437759 2.24332336 90.5366214 2.18928345 89.6219635 2.13360596 C83.25334146 1.80908357 76.87434099 1.89161241 70.49944305 1.92483521 C67.95846227 1.93795655 65.41753538 1.94420041 62.87652588 1.94897461 C57.50099226 1.96020938 52.12550521 1.97950627 46.75 2 C40.46754532 2.02374691 34.1851152 2.04403121 27.90262604 2.05593872 C25.41443914 2.06235794 22.9263324 2.07484942 20.43817139 2.08764648 C18.90637275 2.09128017 17.3745734 2.09463176 15.84277344 2.09765625 C15.1642482 2.10282257 14.48572296 2.10798889 13.78663635 2.11331177 C9.10203052 2.11382234 4.62858277 1.65132583 0 1 C0 0.67 0 0.34 0 0 Z " fill="#223E74" transform="translate(225,40)"/>
<path d="M0 0 C1.485 0.495 1.485 0.495 3 1 C0.23546593 7.53435325 -5.27501415 12.93338536 -11 17 C-11.66 17 -12.32 17 -13 17 C-13 17.66 -13 18.32 -13 19 C-15.40591851 20.77854493 -17.80706433 22.43592239 -20.3125 24.0625 C-21.00279297 24.52205078 -21.69308594 24.98160156 -22.40429688 25.45507812 C-25.28986196 27.35369631 -27.70161655 28.90053885 -31 30 C-31 29.34 -31 28.68 -31 28 C-30.34 28 -29.68 28 -29 28 C-29 26.35 -29 24.7 -29 23 C-25.7 22.34 -22.4 21.68 -19 21 C-19.99 20.34 -20.98 19.68 -22 19 C-22 18.01 -22 17.02 -22 16 C-21.01 16 -20.02 16 -19 16 C-19.33 14.68 -19.66 13.36 -20 12 C-17.625 10.9375 -17.625 10.9375 -15 10 C-14.34 10.33 -13.68 10.66 -13 11 C-11.31050386 10.39351421 -9.64363134 9.72159424 -8 9 C-7.01 8.67 -6.02 8.34 -5 8 C-3.94978897 6.15028304 -3.94978897 6.15028304 -3 4 C-2.02418241 2.64886795 -1.02970259 1.31053056 0 0 Z " fill="#294178" transform="translate(198,186)"/>
<path d="M0 0 C-0.33 0.86625 -0.66 1.7325 -1 2.625 C-2.41384931 7.39674143 -2.62512177 10.38784386 -0.8125 15.0625 C2.74282687 19.92567926 9.57585365 21.10976718 15 23 C18.02839568 24.27358558 21.01835974 25.62089507 24 27 C24 27.66 24 28.32 24 29 C26.31 29 28.62 29 31 29 C31.495 29.99 31.495 29.99 32 31 C28.7 31 25.4 31 22 31 C21.67 30.34 21.34 29.68 21 29 C17.88214887 29.64644661 17.88214887 29.64644661 17 32 C17 31.34 17 30.68 17 30 C16.34 30 15.68 30 15 30 C15.33 29.01 15.66 28.02 16 27 C15.01 27 14.02 27 13 27 C13 26.34 13 25.68 13 25 C7.3443706 23.65155132 1.7809725 22.63065155 -4 22 C-4 20.35 -4 18.7 -4 17 C-4.66 16.67 -5.32 16.34 -6 16 C-6.08075665 13.70890403 -6.13907731 11.41700733 -6.1875 9.125 C-6.22230469 7.84882813 -6.25710937 6.57265625 -6.29296875 5.2578125 C-6.19628906 4.18273437 -6.09960938 3.10765625 -6 2 C-3 0 -3 0 0 0 Z " fill="#2D4576" transform="translate(110,240)"/>
<path d="M0 0 C0.33 0 0.66 0 1 0 C1.44117322 4.49996683 1.52867608 6.34611117 -1.375 9.9375 C-4 12 -4 12 -6 12 C-7.32 15.63 -8.64 19.26 -10 23 C-10.66 23 -11.32 23 -12 23 C-12.2475 23.78375 -12.495 24.5675 -12.75 25.375 C-13.75764942 28.29718332 -14.86756674 31.09138623 -16.0625 33.9375 C-17.34881721 37.07554858 -18.05303101 39.40436149 -18.5 42.8125 C-19 46 -19 46 -20.828125 48.1796875 C-23.52577905 51.68275624 -24.79980497 55.17278512 -26.25 59.3125 C-26.518125 60.05306641 -26.78625 60.79363281 -27.0625 61.55664062 C-27.71693048 63.36801071 -28.35967006 65.1835974 -29 67 C-29.66 67 -30.32 67 -31 67 C-25.98640011 44.69229712 -15.41731432 17.17776889 0 0 Z " fill="#C3CBE0" transform="translate(290,321)"/>
<path d="M0 0 C0.7109375 1.5625 0.7109375 1.5625 1 4 C-0.02003762 6.48149504 -1.07433667 8.67310356 -2.375 11 C-2.73424561 11.65846924 -3.09349121 12.31693848 -3.46362305 12.99536133 C-7.07850965 19.44768099 -11.39579122 25.21522486 -16 31 C-17.00462728 32.3298503 -18.00653061 33.6617936 -19 35 C-20.32 34.67 -21.64 34.34 -23 34 C-22.814375 33.4225 -22.62875 32.845 -22.4375 32.25 C-21.95976454 29.79307475 -22.24270636 28.35602466 -23 26 C-20 25 -20 25 -17.5625 24.875 C-13.57138571 23.51218049 -12.90472258 20.67808498 -11 17 C-10.34 16.67 -9.68 16.34 -9 16 C-7.89892673 13.5312719 -7.89892673 13.5312719 -6.9375 10.625 C-6.59589844 9.64789063 -6.25429687 8.67078125 -5.90234375 7.6640625 C-5.26340405 5.77766911 -4.62981934 3.88945801 -4 2 C-1.9375 0.8125 -1.9375 0.8125 0 0 Z " fill="#2B4374" transform="translate(223,151)"/>
<path d="M0 0 C0.33 0 0.66 0 1 0 C1.12552064 3.91006464 1.21521802 7.81931728 1.2746582 11.73095703 C1.31156222 13.69996473 1.3751618 15.66841495 1.43945312 17.63671875 C1.55265477 26.55700856 0.13357984 33.10147722 -4 41 C-4.38325439 41.74024414 -4.76650879 42.48048828 -5.16137695 43.24316406 C-6.16981903 45.1077874 -7.22348242 46.93152662 -8.3125 48.75 C-8.67150391 49.36359375 -9.03050781 49.9771875 -9.40039062 50.609375 C-10.2602418 52.07685434 -11.12906271 53.53907294 -12 55 C-12.99 55 -13.98 55 -15 55 C-15 55.99 -15 56.98 -15 58 C-15.66 57.67 -16.32 57.34 -17 57 C-16.67 56.443125 -16.34 55.88625 -16 55.3125 C-14.79201298 53.03347745 -14.79201298 53.03347745 -15.25 50.5 C-15.1675 49.675 -15.085 48.85 -15 48 C-13.576875 47.071875 -13.576875 47.071875 -12.125 46.125 C-8.73536999 44.24175024 -8.73536999 44.24175024 -7.625 40.625 C-7.05427953 37.31482125 -6.92218763 34.34593204 -7 31 C-6.67 30.34 -6.34 29.68 -6 29 C-5.34 29 -4.68 29 -4 29 C-3.67 28.01 -3.34 27.02 -3 26 C-2.67 26.66 -2.34 27.32 -2 28 C-1.05533244 24.75921875 -0.80901172 21.72774345 -0.68359375 18.359375 C-0.64169922 17.28945312 -0.59980469 16.21953125 -0.55664062 15.1171875 C-0.51732422 14.00601563 -0.47800781 12.89484375 -0.4375 11.75 C-0.39431641 10.62335938 -0.35113281 9.49671875 -0.30664062 8.3359375 C-0.20067985 5.55741046 -0.09860858 2.77879609 0 0 Z " fill="#1E3A6E" transform="translate(479,235)"/>
<path d="M0 0 C2 1 2 1 2.75390625 2.80078125 C3.02074219 3.62964844 3.28757812 4.45851562 3.5625 5.3125 C8.65921605 19.80982565 15.10901753 33.45984907 24 46 C24.73089844 47.03511719 25.46179688 48.07023437 26.21484375 49.13671875 C31.3645886 56.20517345 37.00819795 62.64543749 43 69 C40 69 40 69 37.30078125 66.4453125 C36.29618956 65.34624927 35.30039723 64.23909313 34.3125 63.125 C33.80138672 62.56941406 33.29027344 62.01382813 32.76367188 61.44140625 C29 57.27071512 29 57.27071512 29 55 C28.34 55 27.68 55 27 55 C16.91311486 42.07173877 0 17.01024807 0 0 Z " fill="#D2D9E7" transform="translate(266,128)"/>
<path d="M0 0 C1.32 0.33 2.64 0.66 4 1 C4.12375 1.639375 4.2475 2.27875 4.375 2.9375 C4.684375 3.9584375 4.684375 3.9584375 5 5 C5.66 5.33 6.32 5.66 7 6 C7.6328125 7.84765625 7.6328125 7.84765625 8.125 10.0625 C8.29257812 10.79597656 8.46015625 11.52945313 8.6328125 12.28515625 C8.75398438 12.85105469 8.87515625 13.41695312 9 14 C9.99 14 10.98 14 12 14 C12.33 14.66 12.66 15.32 13 16 C13.99 16 14.98 16 16 16 C15.67 16.99 15.34 17.98 15 19 C15.74981308 20.81218012 15.74981308 20.81218012 16.9375 22.5625 C19 25.81355932 19 25.81355932 19 28 C20.32 28.66 21.64 29.32 23 30 C22.67 30.66 22.34 31.32 22 32 C17.43159131 29.72392449 14.93294146 26.63246311 12.125 22.5 C11.69590332 21.88141113 11.26680664 21.26282227 10.82470703 20.62548828 C9.53754267 18.75835579 8.26720209 16.88072069 7 15 C6.27296875 13.93523437 5.5459375 12.87046875 4.796875 11.7734375 C0 4.53912602 0 4.53912602 0 0 Z " fill="#243B72" transform="translate(280,156)"/>
<path d="M0 0 C0.99 0.33 1.98 0.66 3 1 C0.60616394 8.27796312 -3.03226045 14.55581479 -6.9375 21.125 C-7.55818359 22.18332031 -8.17886719 23.24164063 -8.81835938 24.33203125 C-11.75297618 29.31369173 -14.71492095 34.24116368 -18 39 C-18.33 38.34 -18.66 37.68 -19 37 C-18.109375 35.15234375 -18.109375 35.15234375 -16.75 32.9375 C-14.93296879 29.81400833 -13.50986512 26.88823917 -12.4375 23.4375 C-10.16588721 16.14041981 -6.67483497 10.02807668 -2 4 C-1.34 3.67 -0.68 3.34 0 3 C0 2.01 0 1.02 0 0 Z " fill="#A3ADCA" transform="translate(435,340)"/>
<path d="M0 0 C0.99 0.33 1.98 0.66 3 1 C3.33 2.98 3.66 4.96 4 7 C5.175625 7.0928125 5.175625 7.0928125 6.375 7.1875 C7.24125 7.455625 8.1075 7.72375 9 8 C10.1875 10.3125 10.1875 10.3125 11 13 C12.2899714 16.16017258 12.2899714 16.16017258 15 18 C15.33 17.01 15.66 16.02 16 15 C16.99 15 17.98 15 19 15 C19.14285714 22.42857143 19.14285714 22.42857143 18 26 C16.68 26.33 15.36 26.66 14 27 C12.22618 23.9600659 10.45648777 20.91774819 8.6875 17.875 C8.18798828 17.0190625 7.68847656 16.163125 7.17382812 15.28125 C0 2.92896316 0 2.92896316 0 0 Z " fill="#193675" transform="translate(29,281)"/>
<path d="M0 0 C0.99 0.33 1.98 0.66 3 1 C1.52512154 1.77900679 0.04478001 2.54767059 -1.4375 3.3125 C-2.26121094 3.74175781 -3.08492188 4.17101562 -3.93359375 4.61328125 C-11.18648329 7.89325041 -17.44204398 9.44592332 -25.41015625 9.29296875 C-26.26306747 9.28872391 -27.1159787 9.28447906 -27.99473572 9.28010559 C-30.6843295 9.2634863 -33.37313769 9.22586775 -36.0625 9.1875 C-37.9003797 9.17243143 -39.73827131 9.15874686 -41.57617188 9.14648438 C-46.05107796 9.11363805 -50.5254064 9.06197498 -55 9 C-55 8.67 -55 8.34 -55 8 C-42.98168818 7.20446163 -31.04394251 6.87187295 -19 7 C-18.67 5.68 -18.34 4.36 -18 3 C-15.525 3.495 -15.525 3.495 -13 4 C-12.34 3.01 -11.68 2.02 -11 1 C-8.90625 0.7421875 -8.90625 0.7421875 -6.5 0.875 C-3.11862842 1.10744652 -3.11862842 1.10744652 0 0 Z " fill="#758ABF" transform="translate(364,447)"/>
<path d="M0 0 C5.21267369 1.51207329 8.4306898 4.83639309 12.25 8.5 C12.91604248 9.13292969 13.58208496 9.76585937 14.26831055 10.41796875 C24.80400011 20.51707184 35.20210363 31.93601547 42 45 C41.505 45.99 41.505 45.99 41 47 C40.37351563 46.0615625 39.74703125 45.123125 39.1015625 44.15625 C38.2763988 42.93725817 37.45085847 41.71852124 36.625 40.5 C36.2125 39.87996094 35.8 39.25992188 35.375 38.62109375 C34.30100332 37.04474379 33.15511468 35.51791243 32 34 C31.34 34 30.68 34 30 34 C29.34 32.68 28.68 31.36 28 30 C27.01 30.33 26.02 30.66 25 31 C24.92265625 30.41734375 24.8453125 29.8346875 24.765625 29.234375 C22.28323176 17.27375301 11.03274227 9.46354484 1.765625 2.42578125 C1.18296875 1.95527344 0.6003125 1.48476563 0 1 C0 0.67 0 0.34 0 0 Z " fill="#BDC7D9" transform="translate(179,289)"/>
<path d="M0 0 C0.33 0.66 0.66 1.32 1 2 C0.04370117 4.07543945 0.04370117 4.07543945 -1.45703125 6.61328125 C-1.99263672 7.53173828 -2.52824219 8.45019531 -3.08007812 9.39648438 C-3.93762695 10.83991211 -3.93762695 10.83991211 -4.8125 12.3125 C-5.92611553 14.20269897 -7.0368914 16.0945744 -8.14453125 17.98828125 C-8.64315674 18.82915283 -9.14178223 19.67002441 -9.65551758 20.53637695 C-12.45258092 25.66170221 -13.09901272 29.15824925 -13 35 C-13.25874859 37.68157628 -13.6254105 40.3310498 -14 43 C-15.98 43.495 -15.98 43.495 -18 44 C-18 48.29 -18 52.58 -18 57 C-18.33 57 -18.66 57 -19 57 C-19.92649342 34.4210121 -11.85983317 18.42059194 0 0 Z " fill="#B2BDD5" transform="translate(36,198)"/>
<path d="M0 0 C1.32 0 2.64 0 4 0 C3.67 2.31 3.34 4.62 3 7 C2.34 7 1.68 7 1 7 C0.67 7.99 0.34 8.98 0 10 C-0.66 10.66 -1.32 11.32 -2 12 C-2.433125 13.3921875 -2.433125 13.3921875 -2.875 14.8125 C-4.091748 18.25995266 -5.68967025 20.19960031 -8 23 C-9.04451438 24.97711651 -10.05698138 26.97250996 -11 29 C-11.99 29 -12.98 29 -14 29 C-13.34 26.36 -12.68 23.72 -12 21 C-11.34 21 -10.68 21 -10 21 C-9.7525 19.948125 -9.505 18.89625 -9.25 17.8125 C-8.21787462 14.1779442 -6.61009535 11.77322631 -4 9 C-3.34 8.67 -2.68 8.34 -2 8 C-1.31527335 6.11235097 -1.31527335 6.11235097 -0.875 3.9375 C-0.70742187 3.20402344 -0.53984375 2.47054687 -0.3671875 1.71484375 C-0.24601562 1.14894531 -0.12484375 0.58304688 0 0 Z " fill="#5769AA" transform="translate(74,134)"/>
<path d="M0 0 C1.8871875 0.061875 1.8871875 0.061875 3.8125 0.125 C4.1425 0.785 4.4725 1.445 4.8125 2.125 C4.4825 3.115 4.1525 4.105 3.8125 5.125 C4.8953125 5.063125 4.8953125 5.063125 6 5 C9.06877225 5.13638988 10.98114841 5.97897674 13.8125 7.125 C16.14164823 7.48641955 18.47503478 7.82199525 20.8125 8.125 C21.8025 8.455 22.7925 8.785 23.8125 9.125 C23.8125 9.785 23.8125 10.445 23.8125 11.125 C25.1325 11.125 26.4525 11.125 27.8125 11.125 C27.8125 11.785 27.8125 12.445 27.8125 13.125 C25.4375 13.75 25.4375 13.75 22.8125 14.125 C22.1525 13.465 21.4925 12.805 20.8125 12.125 C18.91687881 11.59065978 18.91687881 11.59065978 16.75 11.25 C12.44231764 10.38291418 8.79332518 8.8778975 4.83203125 7.01171875 C2.52697791 5.99963537 0.30785124 5.4469808 -2.1875 5.125 C-2.1875 4.465 -2.1875 3.805 -2.1875 3.125 C-3.8375 2.795 -5.4875 2.465 -7.1875 2.125 C-4.09861478 0.06574319 -3.47814073 -0.1140374 0 0 Z " fill="#1A346E" transform="translate(364.1875,224.875)"/>
<path d="M0 0 C0.99 1.32 1.98 2.64 3 4 C1.54397643 7.25031523 -0.32062135 9.67233368 -2.625 12.375 C-5.46356368 15.94720601 -5.46356368 15.94720601 -6.4375 20.375 C-6.293125 21.24125 -6.14875 22.1075 -6 23 C-6 23.99 -6 24.98 -6 26 C-7.65532623 27.01866229 -9.32260138 28.01810813 -11 29 C-11.33 29.99 -11.66 30.98 -12 32 C-13.28079536 28.43676164 -12.72456269 26.55496104 -11.25 23.125 C-10.87875 22.25359375 -10.5075 21.3821875 -10.125 20.484375 C-8.82350472 17.61023959 -7.46940389 14.79186739 -6 12 C-5.34 12 -4.68 12 -4 12 C-3.81824219 11.07767578 -3.81824219 11.07767578 -3.6328125 10.13671875 C-3.46523438 9.32847656 -3.29765625 8.52023437 -3.125 7.6875 C-2.96257812 6.88699219 -2.80015625 6.08648437 -2.6328125 5.26171875 C-2 3 -2 3 0 0 Z " fill="#465A9A" transform="translate(284,332)"/>
<path d="M0 0 C0.66 0 1.32 0 2 0 C2.515625 1.093125 3.03125 2.18625 3.5625 3.3125 C5.95186891 7.58414154 8.53289505 8.31430002 13 10 C13.33 10.99 13.66 11.98 14 13 C13.67 13.66 13.34 14.32 13 15 C13.66 15 14.32 15 15 15 C14.75378906 15.57234375 14.50757812 16.1446875 14.25390625 16.734375 C13.71763112 19.14710686 13.71763112 19.14710686 15.65234375 21.140625 C16.40644531 21.83671875 17.16054687 22.5328125 17.9375 23.25 C18.68902344 23.95640625 19.44054687 24.6628125 20.21484375 25.390625 C20.80394531 25.92171875 21.39304687 26.4528125 22 27 C18.18320275 27 17.62994891 26.11915175 14.9375 23.5 C10.04171612 18.46732743 0 7.38056517 0 0 Z " fill="#828EB8" transform="translate(106,418)"/>
<path d="M0 0 C2.64 0.33 5.28 0.66 8 1 C8.93065133 3.60582371 9.14917407 4.64198224 8.0625 7.25 C7.711875 7.8275 7.36125 8.405 7 9 C7.66 9 8.32 9 9 9 C9.19335938 9.56589844 9.38671875 10.13179688 9.5859375 10.71484375 C9.84632812 11.44832031 10.10671875 12.18179687 10.375 12.9375 C10.63023438 13.66839844 10.88546875 14.39929688 11.1484375 15.15234375 C11.85271413 17.18682116 11.85271413 17.18682116 14 18 C14 18.66 14 19.32 14 20 C14.66 20 15.32 20 16 20 C16 21.65 16 23.3 16 25 C12.47410886 23.57833808 11.1080223 22.06710322 9.23828125 18.7890625 C8.75939453 17.95632813 8.28050781 17.12359375 7.78710938 16.265625 C7.30048828 15.39421875 6.81386719 14.5228125 6.3125 13.625 C5.81427734 12.76132812 5.31605469 11.89765625 4.80273438 11.0078125 C0.82009234 4.00441483 0.82009234 4.00441483 0 0 Z " fill="#3A4D7F" transform="translate(55,327)"/>
<path d="M0 0 C-1 3 -1 3 -2.76245117 4.15087891 C-3.51502197 4.50585449 -4.26759277 4.86083008 -5.04296875 5.2265625 C-5.86990234 5.6184375 -6.69683594 6.0103125 -7.54882812 6.4140625 C-8.41958984 6.81367188 -9.29035156 7.21328125 -10.1875 7.625 C-11.03892578 8.03234375 -11.89035156 8.4396875 -12.76757812 8.859375 C-17.17290142 10.91723677 -21.0989759 12.53476367 -26 13 C-25.67 11.68 -25.34 10.36 -25 9 C-24.38511719 8.87882813 -23.77023438 8.75765625 -23.13671875 8.6328125 C-22.32847656 8.46523437 -21.52023438 8.29765625 -20.6875 8.125 C-19.88699219 7.96257812 -19.08648437 7.80015625 -18.26171875 7.6328125 C-15.74698882 7.05521001 -15.74698882 7.05521001 -13 5 C-13 3.68 -13 2.36 -13 1 C-11.88625 1.020625 -10.7725 1.04125 -9.625 1.0625 C-5.88377953 0.9979962 -3.79326366 0 0 0 Z " fill="#354B79" transform="translate(165,216)"/>
<path d="M0 0 C0.33 0.66 0.66 1.32 1 2 C-1.97851562 2.63476562 -1.97851562 2.63476562 -4.95703125 3.26953125 C-7.46745102 4.16713832 -8.40267601 4.85079159 -10 7 C-11.35489212 10.61021411 -12.48007208 14.26241086 -13.62109375 17.9453125 C-15 21 -15 21 -17.16015625 21.9296875 C-17.76730469 21.95289062 -18.37445313 21.97609375 -19 22 C-19 20.68 -19 19.36 -19 18 C-18.34 18 -17.68 18 -17 18 C-17.66 17.01 -18.32 16.02 -19 15 C-18.625 12.3125 -18.625 12.3125 -18 10 C-16.35 10.33 -14.7 10.66 -13 11 C-12.87625 10.071875 -12.7525 9.14375 -12.625 8.1875 C-11.95632893 4.77727754 -11.18628814 2.80498124 -8.25 0.8125 C-5.41619739 -0.21081761 -2.98930704 -0.13587759 0 0 Z " fill="#344879" transform="translate(252,103)"/>
<path d="M0 0 C1.32 0 2.64 0 4 0 C5.33333333 2.66666667 6.66666667 5.33333333 8 8 C8.66 8 9.32 8 10 8 C11.76171875 10.484375 11.76171875 10.484375 13.6875 13.75 C14.33074219 14.81734375 14.97398437 15.8846875 15.63671875 16.984375 C17 20 17 20 16.70703125 22.390625 C16.47371094 22.92171875 16.24039062 23.4528125 16 24 C15.01 23.67 14.02 23.34 13 23 C13 21.02 13 19.04 13 17 C11.68 17.33 10.36 17.66 9 18 C8.855625 17.401875 8.71125 16.80375 8.5625 16.1875 C8.1127561 14.43849596 7.57107659 12.71322977 7 11 C6.01 10.67 5.02 10.34 4 10 C3.34 9.01 2.68 8.02 2 7 C1.34 6.67 0.68 6.34 0 6 C0.99 4.68 1.98 3.36 3 2 C2.01 1.67 1.02 1.34 0 1 C0 0.67 0 0.34 0 0 Z M9 15 C10 17 10 17 10 17 Z " fill="#274070" transform="translate(392,85)"/>
<path d="M0 0 C2 2 2 2 2.125 5.125 C2.08375 6.07375 2.0425 7.0225 2 8 C1.4225 8.061875 0.845 8.12375 0.25 8.1875 C-3.86457229 9.67331777 -5.58372172 13.14934438 -7.4375 16.9375 C-9.26728736 20.52388322 -11.26251145 23.0519354 -14 26 C-14.66 26 -15.32 26 -16 26 C-16.33 27.32 -16.66 28.64 -17 30 C-18 27 -18 27 -16.33984375 23.6015625 C-15.54994667 22.26952695 -14.74863582 20.9442099 -13.9375 19.625 C-13.55400391 18.965 -13.17050781 18.305 -12.77539062 17.625 C-10.76964426 14.30742281 -8.85419193 11.68683174 -5.80859375 9.26171875 C-3.23316077 7.1877609 -2.19154253 6.20937049 -1.125 3.1875 C-0.75375 2.135625 -0.3825 1.08375 0 0 Z " fill="#435896" transform="translate(54,173)"/>
<path d="M0 0 C0.60466255 4.83730041 -1.06141176 9.18572931 -4 13 C-4.804375 13.28230469 -5.60875 13.56460938 -6.4375 13.85546875 C-10.04959182 15.46879634 -10.69320987 17.58515646 -12.3125 21.125 C-12.82425781 22.22070312 -13.33601563 23.31640625 -13.86328125 24.4453125 C-14.23839844 25.28835937 -14.61351563 26.13140625 -15 27 C-15.66 27 -16.32 27 -17 27 C-15.55199764 21.93590524 -13.31382048 17.86894833 -10.5625 13.4375 C-10.16740234 12.79103516 -9.77230469 12.14457031 -9.36523438 11.47851562 C-8.59754164 10.22287177 -7.8263564 8.96935483 -7.05126953 7.71826172 C-6.11927483 6.19495036 -5.22652401 4.64778197 -4.33984375 3.09765625 C-2.36126629 0 -2.36126629 0 0 0 Z " fill="#A5AFD4" transform="translate(91,107)"/>
<path d="M0 0 C14.78817057 0.9697161 26.64971637 7.56292154 37 18 C39.1293208 20.58333376 41.1070845 23.23949823 43 26 C42.67 26.66 42.34 27.32 42 28 C41.53851563 27.3709375 41.07703125 26.741875 40.6015625 26.09375 C31.94997834 14.74068304 21.84540364 7.00575266 8.0625 3.25 C7.28326172 3.02957031 6.50402344 2.80914062 5.70117188 2.58203125 C3.80310589 2.04638073 1.90186621 1.52199702 0 1 C0 0.67 0 0.34 0 0 Z " fill="#CFD9E8" transform="translate(344,39)"/>
<path d="M0 0 C0.33 0.66 0.66 1.32 1 2 C0.67 2.598125 0.34 3.19625 0 3.8125 C-1.27265288 6.59642818 -0.80300483 8.10918261 0 11 C-0.99 11 -1.98 11 -3 11 C-3.50757862 12.41396902 -4.00574925 13.83131729 -4.5 15.25 C-4.7784375 16.03890625 -5.056875 16.8278125 -5.34375 17.640625 C-6.17864861 20.23412738 -6.17864861 20.23412738 -6 24 C-7.98 24.66 -9.96 25.32 -12 26 C-12 23 -12 23 -11 21 C-10.34 21 -9.68 21 -9 21 C-8.773125 19.72125 -8.54625 18.4425 -8.3125 17.125 C-6.95984607 10.98453505 -4.50202045 4.50202045 0 0 Z " fill="#7281B3" transform="translate(270,367)"/>
<path d="M0 0 C1.4606285 2.64738916 2 3.89448334 2 7 C2.99 7.33 3.98 7.66 5 8 C4.814375 9.36125 4.814375 9.36125 4.625 10.75 C4.625 17.79038852 9.42915355 24.20507232 12.76953125 30.1484375 C13.31996094 31.13070313 13.87039062 32.11296875 14.4375 33.125 C14.95183594 34.01445312 15.46617188 34.90390625 15.99609375 35.8203125 C16.32738281 36.53960937 16.65867187 37.25890625 17 38 C16.67 38.66 16.34 39.32 16 40 C12.24529709 34.08349845 8.89554635 28.00646284 5.75 21.75 C5.40904297 21.07710938 5.06808594 20.40421875 4.71679688 19.7109375 C1.36502463 12.96741162 -0.26018918 7.54548626 0 0 Z " fill="#CAD2E3" transform="translate(18,255)"/>
<path d="M0 0 C0.99 0 1.98 0 3 0 C2.67 0.99 2.34 1.98 2 3 C1.34 3 0.68 3 0 3 C0 3.66 0 4.32 0 5 C-0.99 5.66 -1.98 6.32 -3 7 C-3.72439252 9.38593418 -3.72439252 9.38593418 -4.0625 12.0625 C-4.47265625 14.78515625 -4.47265625 14.78515625 -5 17 C-5.66 17.33 -6.32 17.66 -7 18 C-9 17 -9 17 -10.3125 14.75 C-11 12 -11 12 -9.8125 9.375 C-8.30281242 7.39678869 -6.79307148 5.71156823 -5 4 C-4.67 3.34 -4.34 2.68 -4 2 C-2.68 2 -1.36 2 0 2 C0 1.34 0 0.68 0 0 Z " fill="#93A0CD" transform="translate(100,94)"/>
<path d="M0 0 C0.66 0.33 1.32 0.66 2 1 C1.11032656 2.08839774 0.21288426 3.17044608 -0.6875 4.25 C-1.18636719 4.85328125 -1.68523437 5.4565625 -2.19921875 6.078125 C-9.58261198 13.95801539 -22.08449017 20.5362006 -33 21.17578125 C-35.67492327 21.18601693 -38.32882853 21.13480678 -41 21 C-41 20.67 -41 20.34 -41 20 C-39.845 19.95875 -38.69 19.9175 -37.5 19.875 C-27.26250636 18.72490182 -16.78610075 14.26366659 -8.6015625 8.1015625 C-7 7 -7 7 -5 7 C-5 6.34 -5 5.68 -5 5 C-3.37446717 3.29319053 -1.70884005 1.62339805 0 0 Z " fill="#D6DDEE" transform="translate(380,436)"/>
<path d="M0 0 C1.58400609 2.01600775 2.93086257 3.84876188 4 6.1875 C4.92729859 8.35236812 4.92729859 8.35236812 8 9 C9.90318884 11.85478326 10.4619099 13.41941308 11.125 16.6875 C11.29257813 17.49574219 11.46015625 18.30398438 11.6328125 19.13671875 C11.75398438 19.75160156 11.87515625 20.36648438 12 21 C13.65 20.67 15.3 20.34 17 20 C17.66 20.99 18.32 21.98 19 23 C16 24 16 24 13 22.875 C9.77837506 20.86148441 8.57474981 19.41195792 7 16 C7 15.34 7 14.68 7 14 C6.34 14 5.68 14 5 14 C3.02 9.71 1.04 5.42 -1 1 C-0.67 0.67 -0.34 0.34 0 0 Z " fill="#4E6198" transform="translate(101,404)"/>
<path d="M0 0 C2.625 0.375 2.625 0.375 5 1 C4.67 1.99 4.34 2.98 4 4 C5.11375 4.28875 6.2275 4.5775 7.375 4.875 C11 6 11 6 13 8 C13 8.99 13 9.98 13 11 C13.66 11 14.32 11 15 11 C15.33 11.99 15.66 12.98 16 14 C7.84897292 12.32354762 3.42712235 8.11994647 -2 2 C-1.34 1.34 -0.68 0.68 0 0 Z " fill="#5766A3" transform="translate(121,435)"/>
<path d="M0 0 C7.86174744 9.21722113 10.71973165 21.00447255 10 33 C8.35 32.67 6.7 32.34 5 32 C5.66 31.67 6.32 31.34 7 31 C6.835 30.0925 6.67 29.185 6.5 28.25 C6 25 6 25 6 21 C5.505 19.824375 5.505 19.824375 5 18.625 C3.83921487 15.57793905 4 13.24295344 4 10 C3.07585059 6.72435637 3.07585059 6.72435637 2 4 C1.34 4 0.68 4 0 4 C0 2.68 0 1.36 0 0 Z " fill="#8393BF" transform="translate(221,336)"/>
<path d="M0 0 C0.66 0.33 1.32 0.66 2 1 C1.38511719 2.12148438 1.38511719 2.12148438 0.7578125 3.265625 C0.21898437 4.25046875 -0.31984375 5.2353125 -0.875 6.25 C-1.40867187 7.22453125 -1.94234375 8.1990625 -2.4921875 9.203125 C-3.70419466 11.45130408 -4.87547567 13.7072805 -6 16 C-6.66 16 -7.32 16 -8 16 C-8.33 16.66 -8.66 17.32 -9 18 C-9.66 18 -10.32 18 -11 18 C-11.33 14.37 -11.66 10.74 -12 7 C-11.34 6.67 -10.68 6.34 -10 6 C-8.875 10.75 -8.875 10.75 -10 13 C-7.9375006 11.18777466 -7.9375006 11.18777466 -6 9 C-6 8.01 -6 7.02 -6 6 C-4.68 5.67 -3.36 5.34 -2 5 C-1.855625 4.360625 -1.71125 3.72125 -1.5625 3.0625 C-1 1 -1 1 0 0 Z " fill="#5D6CA0" transform="translate(404,394)"/>
<path d="M0 0 C1.32 0 2.64 0 4 0 C3.42266085 5.6634221 1.29383632 10.27163948 -1.0625 15.375 C-1.43955078 16.20644531 -1.81660156 17.03789062 -2.20507812 17.89453125 C-3.13043356 19.93265588 -4.0621837 21.9675867 -5 24 C-5.99 24 -6.98 24 -8 24 C-6.85884378 19.34027878 -5.41392836 16.0310314 -2.8828125 11.90625 C-1.5183065 8.95988306 -1.36628815 6.03171457 -1.17578125 2.8203125 C-1 1 -1 1 0 0 Z " fill="#32487C" transform="translate(232,125)"/>
<path d="M0 0 C14.85 0 29.7 0 45 0 C45 0.33 45 0.66 45 1 C38.89897367 2.6382619 33.53405769 3.21663702 27.24609375 2.7578125 C26.06660912 2.68697952 26.06660912 2.68697952 24.86329651 2.61471558 C22.38711735 2.46331567 19.91249971 2.29449076 17.4375 2.125 C15.74421339 2.01836945 14.05085384 1.91289046 12.35742188 1.80859375 C8.23731954 1.55234716 4.11852046 1.28048298 0 1 C0 0.67 0 0.34 0 0 Z " fill="#1A376C" transform="translate(296,40)"/>
<path d="M0 0 C3 1 3 1 5 3 C5.99 3.33 6.98 3.66 8 4 C8.12375 5.134375 8.2475 6.26875 8.375 7.4375 C8.58125 8.613125 8.7875 9.78875 9 11 C9.66 11.33 10.32 11.66 11 12 C11 13.65 11 15.3 11 17 C6.54993142 15.50351676 5.3334882 12.52451567 3.25 8.5 C2.63640625 7.3346875 2.0228125 6.169375 1.390625 4.96875 C0 2 0 2 0 0 Z " fill="#183270" transform="translate(45,309)"/>
<path d="M0 0 C6.81987029 0.43300764 11.91643021 1.90787824 18 5 C18 5.66 18 6.32 18 7 C20.31 7 22.62 7 25 7 C25.33 7.66 25.66 8.32 26 9 C22.7 9 19.4 9 16 9 C15.67 8.34 15.34 7.68 15 7 C11.88214887 7.64644661 11.88214887 7.64644661 11 10 C11 9.34 11 8.68 11 8 C10.34 8 9.68 8 9 8 C9.33 7.01 9.66 6.02 10 5 C9.01 5 8.02 5 7 5 C7 4.34 7 3.68 7 3 C4.69 2.34 2.38 1.68 0 1 C0 0.67 0 0.34 0 0 Z " fill="#1B3973" transform="translate(116,262)"/>
<path d="M0 0 C3.86905871 3.5698534 6.13844869 8.0440487 8.75 12.5625 C9.26949219 13.43841797 9.78898437 14.31433594 10.32421875 15.21679688 C10.81019531 16.05404297 11.29617188 16.89128906 11.796875 17.75390625 C12.24385742 18.52033447 12.69083984 19.2867627 13.15136719 20.07641602 C13.43141602 20.71119873 13.71146484 21.34598145 14 22 C13.67 22.66 13.34 23.32 13 24 C12.67 23.01 12.34 22.02 12 21 C9.98491642 20.26676204 9.98491642 20.26676204 8 20 C7.67 18.68 7.34 17.36 7 16 C6.34 16 5.68 16 5 16 C4.67 13.03 4.34 10.06 4 7 C3.34 7 2.68 7 2 7 C0 4 0 4 0 0 Z " fill="#8894AE" transform="translate(416,117)"/>
<path d="M0 0 C1.43836751 0.11458693 2.87570966 0.24209116 4.3125 0.375 C5.51326172 0.47941406 5.51326172 0.47941406 6.73828125 0.5859375 C9 1 9 1 12 3 C15.11405977 3.8196778 18.22541601 4.56888699 21.375 5.23632812 C26.23530487 6.40299493 28.77093288 8.22859922 32 12 C28.00409121 11.32046791 24.39845512 10.13496661 20.60546875 8.71484375 C19.40341797 8.26689453 18.20136719 7.81894531 16.96289062 7.35742188 C15.70439626 6.88419654 14.4459331 6.41088821 13.1875 5.9375 C11.90963459 5.45994011 10.63164102 4.982723 9.35351562 4.50585938 C6.23440005 3.34060488 3.11663485 2.17186993 0 1 C0 0.67 0 0.34 0 0 Z " fill="#B8C2D3" transform="translate(358,229)"/>
<path d="M0 0 C4.1426988 3.7759454 6.50141906 8.74285047 9.25 13.5625 C9.8171875 14.53380859 10.384375 15.50511719 10.96875 16.50585938 C11.49984375 17.43333984 12.0309375 18.36082031 12.578125 19.31640625 C13.31144043 20.59173218 13.31144043 20.59173218 14.05957031 21.89282227 C14.36991211 22.58819092 14.68025391 23.28355957 15 24 C14.67 24.66 14.34 25.32 14 26 C13.34 24.35 12.68 22.7 12 21 C11.34 21 10.68 21 10 21 C8.97980427 20.0206121 7.97850195 19.02104551 7 18 C6.67 18 6.34 18 6 18 C6 16.35 6 14.7 6 13 C4.68 12.67 3.36 12.34 2 12 C2.99 11.67 3.98 11.34 5 11 C4.67 9.68 4.34 8.36 4 7 C3.34 7 2.68 7 2 7 C0 4 0 4 0 0 Z " fill="#7786A3" transform="translate(390,72)"/>
<path d="M0 0 C1 2 1 2 0.375 5.3125 C-1.14837122 9.39790463 -2.92103659 10.99613325 -6 14 C-7.22039188 16.29183829 -8.09025171 18.55804407 -9 21 C-9.66 21 -10.32 21 -11 21 C-11.268125 21.721875 -11.53625 22.44375 -11.8125 23.1875 C-12.98982498 25.97590126 -14.39145884 28.44095724 -16 31 C-16.33 30.34 -16.66 29.68 -17 29 C-15.95214281 26.82387222 -14.85346643 24.79202985 -13.6328125 22.71484375 C-13.27863251 22.09855606 -12.92445251 21.48226837 -12.55953979 20.8473053 C-11.42215894 18.87294931 -10.27354746 16.90537661 -9.125 14.9375 C-8.35737179 13.60652391 -7.59043561 12.27514845 -6.82421875 10.94335938 C-1.19567626 1.19567626 -1.19567626 1.19567626 0 0 Z " fill="#C5CDE5" transform="translate(73,134)"/>
<path d="M0 0 C-0.66 0 -1.32 0 -2 0 C-1.34 1.98 -0.68 3.96 0 6 C-1.98 5.34 -3.96 4.68 -6 4 C-6 4.66 -6 5.32 -6 6 C-7.4117783 6.53394179 -8.82970244 7.05165104 -10.25 7.5625 C-11.03890625 7.85253906 -11.8278125 8.14257812 -12.640625 8.44140625 C-15.22741227 9.05384098 -16.49494634 8.72332269 -19 8 C-16.40251918 6.4666195 -13.79812104 4.94820332 -11.1875 3.4375 C-10.44951172 2.99986328 -9.71152344 2.56222656 -8.95117188 2.11132812 C-8.23896484 1.70205078 -7.52675781 1.29277344 -6.79296875 0.87109375 C-6.1383667 0.48880615 -5.48376465 0.10651855 -4.80932617 -0.28735352 C-3 -1 -3 -1 0 0 Z " fill="#6776AA" transform="translate(352,273)"/>
<path d="M0 0 C19.36510791 -0.59892086 19.36510791 -0.59892086 27 5 C26.67 5.99 26.34 6.98 26 8 C25.0925 7.690625 24.185 7.38125 23.25 7.0625 C20.83436662 6.2727737 18.47219715 5.57050703 16 5 C16 4.01 16 3.02 16 2 C15.34 2 14.68 2 14 2 C14 2.99 14 3.98 14 5 C13.01 4.67 12.02 4.34 11 4 C11.33 3.67 11.66 3.34 12 3 C6.06 2.01 6.06 2.01 0 1 C0 0.67 0 0.34 0 0 Z " fill="#173971" transform="translate(339,42)"/>
<path d="M0 0 C0.99 0.33 1.98 0.66 3 1 C3.33 2.98 3.66 4.96 4 7 C5.175625 7.0928125 5.175625 7.0928125 6.375 7.1875 C9 8 9 8 10.25 10.1875 C11.03046651 13.1142494 11.58150625 16.00079482 12 19 C11.34 19.33 10.68 19.66 10 20 C8.51157487 17.60949904 7.03421905 15.21325565 5.5625 12.8125 C5.14162109 12.13896484 4.72074219 11.46542969 4.28710938 10.77148438 C2.11063712 7.20206988 0.4532743 4.24429573 0 0 Z " fill="#293E77" transform="translate(29,281)"/>
<path d="M0 0 C-0.33 1.32 -0.66 2.64 -1 4 C-1.66 4 -2.32 4 -3 4 C-3 4.66 -3 5.32 -3 6 C-8.24385089 7.7479503 -12.47322267 8.19392201 -18 8 C-15.67404058 5.67404058 -13.56262 4.77221474 -10.5625 3.4375 C-9.59441406 3.00308594 -8.62632812 2.56867188 -7.62890625 2.12109375 C-2.65505226 0 -2.65505226 0 0 0 Z " fill="#2E4789" transform="translate(378,263)"/>
<path d="M0 0 C4.75 0.875 4.75 0.875 7 2 C9.29924497 2.27024708 11.59801487 2.44497841 13.90625 2.62109375 C16 3 16 3 18 5 C17.34 5 16.68 5 16 5 C16 5.66 16 6.32 16 7 C16.99 7.33 17.98 7.66 19 8 C11.91753542 8.94432861 6.81209321 5.88143249 1 2 C0.67 1.34 0.34 0.68 0 0 Z " fill="#9AA5CB" transform="translate(128,446)"/>
<path d="M0 0 C0.66 0.33 1.32 0.66 2 1 C0.51481201 5.04301175 -1.42877998 8.61146256 -3.625 12.3125 C-4.25664062 13.38113281 -4.88828125 14.44976562 -5.5390625 15.55078125 C-6.26222656 16.76314453 -6.26222656 16.76314453 -7 18 C-8.27446435 14.17660695 -7.34278151 12.72994863 -6 9 C-5.896875 8.13375 -5.79375 7.2675 -5.6875 6.375 C-4.72607921 3.05372819 -2.77681006 1.92240696 0 0 Z " fill="#4C629E" transform="translate(414,376)"/>
<path d="M0 0 C6.41951995 0.99561999 11.96763008 2.72179996 17 7 C17 7.66 17 8.32 17 9 C13.87709365 8.51421457 11.00419641 8.0013988 8 7 C8 6.34 8 5.68 8 5 C7.01 5.33 6.02 5.66 5 6 C5 5.01 5 4.02 5 3 C3.68 3 2.36 3 1 3 C0.67 2.01 0.34 1.02 0 0 Z " fill="#2D4679" transform="translate(143,271)"/>
<path d="M0 0 C3.5922998 0.63693259 6.87918241 1.5870672 10.30078125 2.84765625 C11.27724609 3.20537109 12.25371094 3.56308594 13.25976562 3.93164062 C14.26716797 4.30482422 15.27457031 4.67800781 16.3125 5.0625 C17.33923828 5.43955078 18.36597656 5.81660156 19.42382812 6.20507812 C21.95043887 7.13346068 24.47575761 8.06520129 27 9 C27 9.33 27 9.66 27 10 C24.03 10 21.06 10 18 10 C17.67 9.34 17.34 8.68 17 8 C14.63095754 6.96983675 14.63095754 6.96983675 11.8125 6.0625 C7.67859472 4.62532199 3.84591073 3.07887067 0 1 C0 0.67 0 0.34 0 0 Z " fill="#B0BACF" transform="translate(116,259)"/>
<path d="M0 0 C0.66 0.33 1.32 0.66 2 1 C1.25 3.875 1.25 3.875 0 7 C-1.8125 8.0625 -1.8125 8.0625 -4 9 C-5.70496537 10.62746694 -7.37897032 12.28891311 -9 14 C-7.58328436 9.1595549 -5.72741402 5.21509439 -3 1 C-2.01 0.67 -1.02 0.34 0 0 Z " fill="#6878AF" transform="translate(85,120)"/>
<path d="M0 0 C0.66 0 1.32 0 2 0 C3.75 2.125 3.75 2.125 5 5 C4.13666549 9.60445073 2.06628746 12.52487421 -1 16 C-1.09688221 10.55306686 -1.12862175 5.36095333 0 0 Z " fill="#445C98" transform="translate(417,361)"/>
<path d="M0 0 C1.32 0.66 2.64 1.32 4 2 C3.34 2 2.68 2 2 2 C2 2.66 2 3.32 2 4 C0.23141309 4.67260351 -1.53996016 5.33788395 -3.3125 6 C-4.29863281 6.37125 -5.28476563 6.7425 -6.30078125 7.125 C-9 8 -9 8 -12 8 C-12 7.01 -12 6.02 -12 5 C-8.03302114 3.19682779 -4.3177458 2.50797009 0 2 C0 1.34 0 0.68 0 0 Z " fill="#7D8BAE" transform="translate(137,228)"/>
<path d="M0 0 C2.73251686 3.27098341 4.21683758 6.59882422 5.75 10.5625 C6.42289063 12.26599609 6.42289063 12.26599609 7.109375 14.00390625 C8 17 8 17 7 20 C4.5625 18.625 4.5625 18.625 2 16 C1.24515004 12.68547087 1.15446605 9.38760033 1 6 C0.68909515 3.99639094 0.36732268 1.9940374 0 0 Z " fill="#AFB6D1" transform="translate(228,350)"/>
<path d="M0 0 C0.66 0.33 1.32 0.66 2 1 C1.0409375 1.556875 1.0409375 1.556875 0.0625 2.125 C-2.63858072 4.58052793 -2.68407005 6.44578805 -3 10 C-3.721875 10.103125 -4.44375 10.20625 -5.1875 10.3125 C-8.09552566 10.87460886 -8.09552566 10.87460886 -10.6875 12.625 C-11.450625 13.07875 -12.21375 13.5325 -13 14 C-13.66 13.67 -14.32 13.34 -15 13 C-14.0925 12.278125 -13.185 11.55625 -12.25 10.8125 C-10.1473016 9.07420366 -8.64597643 7.54942455 -6.9375 5.375 C-4.83713383 2.8003576 -2.99397579 1.41819906 0 0 Z " fill="#7E8AB0" transform="translate(331,282)"/>
<path d="M0 0 C3.40972637 1.42010296 5.03616603 3.02531599 7.1875 6 C11.146604 11.29314991 15.5258931 16.14036915 20 21 C17 21 17 21 14.30078125 18.4453125 C13.29618956 17.34624927 12.30039723 16.23909313 11.3125 15.125 C10.80138672 14.56941406 10.29027344 14.01382813 9.76367188 13.44140625 C6 9.27071512 6 9.27071512 6 7 C5.34 7 4.68 7 4 7 C2.02 3.535 2.02 3.535 0 0 Z " fill="#D4DCE9" transform="translate(289,176)"/>
<path d="M0 0 C-1 3 -1 3 -2.9609375 3.984375 C-3.75757813 4.23703125 -4.55421875 4.4896875 -5.375 4.75 C-6.56222656 5.14445313 -6.56222656 5.14445313 -7.7734375 5.546875 C-10 6 -10 6 -13 5 C-13 3.68 -13 2.36 -13 1 C-11.88625 1.020625 -10.7725 1.04125 -9.625 1.0625 C-5.88377953 0.9979962 -3.79326366 0 0 0 Z " fill="#223F79" transform="translate(165,216)"/>
<path d="M0 0 C1.485 0.99 1.485 0.99 3 2 C3 2.66 3 3.32 3 4 C3.66 4 4.32 4 5 4 C5.66 6.97 6.32 9.94 7 13 C5.68 12.67 4.36 12.34 3 12 C2.67 9.69 2.34 7.38 2 5 C1.34 5 0.68 5 0 5 C-0.5625 3.0625 -0.5625 3.0625 -1 1 C-0.67 0.67 -0.34 0.34 0 0 Z " fill="#1F3B70" transform="translate(463,203)"/>
<path d="M0 0 C2.125 0.375 2.125 0.375 4 1 C2.625 2.5 2.625 2.5 1 4 C0.34 4 -0.32 4 -1 4 C-1 4.66 -1 5.32 -1 6 C-6.41176471 10 -6.41176471 10 -9 10 C-8.875 7.6875 -8.875 7.6875 -8 5 C-5.0625 3.3125 -5.0625 3.3125 -2 2 C-1.34 1.34 -0.68 0.68 0 0 Z " fill="#7280B3" transform="translate(376,437)"/>
<path d="M0 0 C4.49797113 1.68673918 8.72886302 3.81673892 13 6 C13 6.66 13 7.32 13 8 C15.31 8.33 17.62 8.66 20 9 C20 9.99 20 10.98 20 12 C15.85970136 11.31341781 12.45945502 9.18698547 8.875 7.125 C8.24207031 6.77308594 7.60914063 6.42117187 6.95703125 6.05859375 C3.81094003 4.26178157 2.04194437 3.06291655 0 0 Z " fill="#B4BCD3" transform="translate(323,210)"/>
<path d="M0 0 C2.31 0 4.62 0 7 0 C6.44271087 3.34373475 5.64826111 6.03312999 4 9 C3.34 9 2.68 9 2 9 C1.896875 8.360625 1.79375 7.72125 1.6875 7.0625 C1.460625 6.381875 1.23375 5.70125 1 5 C0.01 4.67 -0.98 4.34 -2 4 C-1.01 3.67 -0.02 3.34 1 3 C0.67 2.01 0.34 1.02 0 0 Z " fill="#24407D" transform="translate(450,304)"/>
<path d="M0 0 C3.40843742 2.88406243 4.86591384 4.3708265 5.8125 8.8125 C5.9053125 10.3903125 5.9053125 10.3903125 6 12 C4.35 12.33 2.7 12.66 1 13 C0.67 12.01 0.34 11.02 0 10 C0.66 10 1.32 10 2 10 C2 8.02 2 6.04 2 4 C1.01 3.67 0.02 3.34 -1 3 C-0.67 2.01 -0.34 1.02 0 0 Z " fill="#1D3B71" transform="translate(473,221)"/>
<path d="M0 0 C2 1.75 2 1.75 4 4 C4 5.32 4 6.64 4 8 C4.66 8 5.32 8 6 8 C6.33 9.32 6.66 10.64 7 12 C5.33388095 12.042721 3.66617115 12.04063832 2 12 C0.26043342 10.26043342 0.62809614 7.8063378 0.4375 5.4375 C0.35371094 4.42558594 0.26992187 3.41367187 0.18359375 2.37109375 C0.12300781 1.58863281 0.06242188 0.80617188 0 0 Z " fill="#4D5F92" transform="translate(217,332)"/>
<path d="M0 0 C2.64 0.33 5.28 0.66 8 1 C8.6875 2.75 8.6875 2.75 9 5 C7.5625 7.25 7.5625 7.25 6 9 C6 8.34 6 7.68 6 7 C5.01 7 4.02 7 3 7 C2.01 4.69 1.02 2.38 0 0 Z " fill="#253C78" transform="translate(55,327)"/>
<path d="M0 0 C-0.66 0.66 -1.32 1.32 -2 2 C-3.66666667 2 -5.33333333 2 -7 2 C-10.20898563 2.7913437 -10.20898563 2.7913437 -13 4 C-13.33 4.66 -13.66 5.32 -14 6 C-15.65 5.67 -17.3 5.34 -19 5 C-16.79196889 1.68795334 -16.52081105 1.5556357 -12.875 0.8125 C-8.51177248 -0.04317347 -4.43547892 -0.16129014 0 0 Z " fill="#596EB3" transform="translate(166,40)"/>
<path d="M0 0 C4.38081466 4.02561348 7.78693637 7.73302438 8.1875 13.875 C8.125625 14.57625 8.06375 15.2775 8 16 C4.96343083 13.4011345 3.53836261 10.37928272 1.8125 6.8125 C1.28269531 5.72582031 0.75289063 4.63914062 0.20703125 3.51953125 C-0.19128906 2.68808594 -0.58960937 1.85664063 -1 1 C-0.67 0.67 -0.34 0.34 0 0 Z " fill="#435187" transform="translate(80,368)"/>
<path d="M0 0 C3 1 3 1 4.75 3.3125 C6 6 6 6 5.6875 8.3125 C5.460625 8.869375 5.23375 9.42625 5 10 C3.35 9.67 1.7 9.34 0 9 C0.04125 8.236875 0.0825 7.47375 0.125 6.6875 C0.22080824 3.77281584 0.22080824 3.77281584 -2 1 C-1.34 0.67 -0.68 0.34 0 0 Z " fill="#223B6F" transform="translate(410,111)"/>
<path d="M0 0 C1.32 0 2.64 0 4 0 C4.28875 0.61875 4.5775 1.2375 4.875 1.875 C5.93720042 4.13325765 5.93720042 4.13325765 8 6 C7.625 8.625 7.625 8.625 7 11 C4 10 4 10 2 7 C1.34 6.67 0.68 6.34 0 6 C0.99 4.68 1.98 3.36 3 2 C2.01 1.67 1.02 1.34 0 1 C0 0.67 0 0.34 0 0 Z " fill="#14306C" transform="translate(392,85)"/>
<path d="M0 0 C2.00875442 -0.27571139 4.01178687 -0.60235737 6 -1 C6 -0.34 6 0.32 6 1 C5.01 1 4.02 1 3 1 C3 1.66 3 2.32 3 3 C-3.625 4 -3.625 4 -7 4 C-7 3.01 -7 2.02 -7 1 C-3.375 -1.125 -3.375 -1.125 0 0 Z " fill="#1B397A" transform="translate(185,197)"/>
<path d="M0 0 C0.66 0 1.32 0 2 0 C6.06153846 6.4 6.06153846 6.4 5.75 9.4375 C5.5025 9.953125 5.255 10.46875 5 11 C0.125 7.375 0.125 7.375 -1 4 C-0.5625 1.8125 -0.5625 1.8125 0 0 Z " fill="#243F75" transform="translate(433,150)"/>
<path d="M0 0 C0.33 0 0.66 0 1 0 C1 2.97 1 5.94 1 9 C-0.32 9.33 -1.64 9.66 -3 10 C-5.26325246 12.97763043 -5.26325246 12.97763043 -7 16 C-7.33 15.34 -7.66 14.68 -8 14 C-6.75717988 11.54961707 -5.47117661 9.226675 -4.0625 6.875 C-3.48338867 5.88693359 -3.48338867 5.88693359 -2.89257812 4.87890625 C-1.93553422 3.248387 -0.96867185 1.62363816 0 0 Z " fill="#B9C3E0" transform="translate(105,78)"/>
<path d="M0 0 C0.33 0 0.66 0 1 0 C1.3125 3.1875 1.3125 3.1875 1 7 C-1.5 9.9375 -1.5 9.9375 -4 12 C-5.40253926 7.79238221 -3.90602531 5.88264416 -2 2 C-1.34 1.34 -0.68 0.68 0 0 Z " fill="#7A88B3" transform="translate(290,321)"/>
<path d="M0 0 C3.39417765 3.12621626 5.6062718 5.56541027 7 10 C4.525 9.01 4.525 9.01 2 8 C1.34 8.99 0.68 9.98 0 11 C-0.33 9.35 -0.66 7.7 -1 6 C-0.34 6 0.32 6 1 6 C0.67 4.02 0.34 2.04 0 0 Z " fill="#40558B" transform="translate(210,322)"/>
<path d="M0 0 C2.875 0.6875 2.875 0.6875 6 2 C7.64530416 4.91667555 8 6.64720982 8 10 C7.01 10 6.02 10 5 10 C4.67 8.68 4.34 7.36 4 6 C3.34 6.66 2.68 7.32 2 8 C2 7.34 2 6.68 2 6 C1.34 5.67 0.68 5.34 0 5 C0.66 5 1.32 5 2 5 C1.34 3.35 0.68 1.7 0 0 Z " fill="#1C3770" transform="translate(384,70)"/>
<path d="M0 0 C5.99725275 2.10714286 5.99725275 2.10714286 8 5 C7.6875 7.1875 7.6875 7.1875 7 9 C6.34 8.34 5.68 7.68 5 7 C4.34 7.66 3.68 8.32 3 9 C1.76078698 6.02588876 0.69941596 3.14737182 0 0 Z " fill="#1D3B72" transform="translate(367,49)"/>
<path d="M0 0 C0 4.64285714 0 4.64285714 -1 7 C-4.0625 9.25 -4.0625 9.25 -7 11 C-7.66 10.67 -8.32 10.34 -9 10 C-7.8758824 8.70756532 -6.75067408 7.41607925 -5.625 6.125 C-4.99851562 5.40570313 -4.37203125 4.68640625 -3.7265625 3.9453125 C-2.52573166 2.5923402 -1.2791655 1.2791655 0 0 Z " fill="#4A5B8D" transform="translate(309,301)"/>
<path d="M0 0 C0.66 0 1.32 0 2 0 C2.70173653 4.38585329 3.10834375 8.55790643 3 13 C2.01 13 1.02 13 0 13 C-0.19397476 11.02145742 -0.38001321 9.0421352 -0.5625 7.0625 C-0.66691406 5.96035156 -0.77132813 4.85820312 -0.87890625 3.72265625 C-0.91886719 2.82417969 -0.95882813 1.92570313 -1 1 C-0.67 0.67 -0.34 0.34 0 0 Z " fill="#1E3872" transform="translate(395,241)"/>
<path d="M0 0 C0.99 0.66 1.98 1.32 3 2 C3 3.32 3 4.64 3 6 C-1.83628305 5.00956295 -6.47618873 4.04301154 -11 2 C-7.18510326 0.53273202 -4.70988378 1.56663581 -1 3 C-0.67 2.01 -0.34 1.02 0 0 Z " fill="#123370" transform="translate(349,216)"/>
<path d="M0 0 C1.4540625 0.0309375 1.4540625 0.0309375 2.9375 0.0625 C3.2675 0.7225 3.5975 1.3825 3.9375 2.0625 C2.9475 2.3925 1.9575 2.7225 0.9375 3.0625 C-0.29219878 6.57440809 -0.29219878 6.57440809 -1.0625 10.0625 C-2.0525 9.7325 -3.0425 9.4025 -4.0625 9.0625 C-3.876875 8.485 -3.69125 7.9075 -3.5 7.3125 C-3.02067621 4.84740621 -3.40523163 3.44509782 -4.0625 1.0625 C-3.0625 0.0625 -3.0625 0.0625 0 0 Z " fill="#1D3C7D" transform="translate(204.0625,175.9375)"/>
<path d="M0 0 C2 1 2 1 2.8515625 3.06640625 C3.10679687 3.89011719 3.36203125 4.71382812 3.625 5.5625 C3.88539063 6.38878906 4.14578125 7.21507812 4.4140625 8.06640625 C4.60742188 8.70449219 4.80078125 9.34257812 5 10 C2.03 9.505 2.03 9.505 -1 9 C-1.09765625 2.84765625 -1.09765625 2.84765625 -1 1 C-0.67 0.67 -0.34 0.34 0 0 Z " fill="#103272" transform="translate(442,166)"/>
<path d="M0 0 C0.33 0.66 0.66 1.32 1 2 C0.67 2.66 0.34 3.32 0 4 C0.66 4.33 1.32 4.66 2 5 C1.01 5.33 0.02 5.66 -1 6 C-2.20882096 8.00016466 -2.20882096 8.00016466 -3 10 C-3.99 10 -4.98 10 -6 10 C-6.33 10.99 -6.66 11.98 -7 13 C-7.33 12.34 -7.66 11.68 -8 11 C-6.37509055 7.83142656 -4.55690931 5.44573934 -2 3 C-1.34 2.01 -0.68 1.02 0 0 Z " fill="#8794BB" transform="translate(60,159)"/>
<path d="M0 0 C0.99 0.33 1.98 0.66 3 1 C4.62323754 4.75907641 5.23994929 7.92086213 5 12 C2.37599478 9.62590004 0.55431791 7.18635171 -1 4 C-0.6875 1.6875 -0.6875 1.6875 0 0 Z " fill="#283E7A" transform="translate(259,104)"/>
<path d="M0 0 C2.87839991 1.2903172 5.09054786 2.45406381 7 5 C7.6875 8.1875 7.6875 8.1875 8 11 C7.34 10.67 6.68 10.34 6 10 C6 9.01 6 8.02 6 7 C3.03 6.505 3.03 6.505 0 6 C0 4.02 0 2.04 0 0 Z " fill="#1C396C" transform="translate(377,58)"/>
<path d="M0 0 C1 2 1 2 0.25 4.5625 C-1 7 -1 7 -4 8 C-4 8.99 -4 9.98 -4 11 C-5.32 11 -6.64 11 -8 11 C-6.63629701 8.00779732 -5.05091917 5.70973471 -2.875 3.25 C-2.33617187 2.63640625 -1.79734375 2.0228125 -1.2421875 1.390625 C-0.62730469 0.70226562 -0.62730469 0.70226562 0 0 Z " fill="#49588F" transform="translate(299,312)"/>
<path d="M0 0 C0.66 0 1.32 0 2 0 C2.66 1.32 3.32 2.64 4 4 C4.66 3.34 5.32 2.68 6 2 C7 5 7 5 6.0625 7.1875 C5.5365625 8.0846875 5.5365625 8.0846875 5 9 C5.66 9 6.32 9 7 9 C7 9.66 7 10.32 7 11 C3.66428571 9.88809524 3.41582921 9.53679327 1.8125 6.625 C1.46832031 6.01914062 1.12414062 5.41328125 0.76953125 4.7890625 C0 3 0 3 0 0 Z " fill="#344884" transform="translate(72,355)"/>
<path d="M0 0 C1.2065625 0.0309375 1.2065625 0.0309375 2.4375 0.0625 C1.7775 2.7025 1.1175 5.3425 0.4375 8.0625 C-0.8825 7.7325 -2.2025 7.4025 -3.5625 7.0625 C-3.60504356 5.06295254 -3.60330783 3.06208364 -3.5625 1.0625 C-2.5625 0.0625 -2.5625 0.0625 0 0 Z " fill="#1C3975" transform="translate(459.5625,293.9375)"/>
<path d="M0 0 C-0.33 1.65 -0.66 3.3 -1 5 C-1.86625 4.835 -2.7325 4.67 -3.625 4.5 C-6.81225199 4.02781452 -9.78485027 3.92344882 -13 4 C-8.30968888 0.87312592 -5.74301634 -0.2610462 0 0 Z " fill="#354D83" transform="translate(392,259)"/>
<path d="M0 0 C1.39195915 4.17587745 -0.17676781 6.13474776 -2 10 C-3.32 10 -4.64 10 -6 10 C-6.66 11.65 -7.32 13.3 -8 15 C-8.33 14.34 -8.66 13.68 -9 13 C-7.3646438 9.8110554 -5.50692898 7.50692898 -3 5 C-1.96642853 3.35394174 -0.95939668 1.69036558 0 0 Z " fill="#97A3CD" transform="translate(102,86)"/>
<path d="M0 0 C0.66 0.33 1.32 0.66 2 1 C0.43358249 5.30764815 -1.68336156 9.06171464 -4 13 C-5.2380014 9.42355152 -4.74926071 6.66305234 -4 3 C-3.01 3.33 -2.02 3.66 -1 4 C-0.67 2.68 -0.34 1.36 0 0 Z " fill="#344D81" transform="translate(445,322)"/>
<path d="M0 0 C-5.9435884 3.30199356 -11.29119838 4.95518663 -18 6 C-14.98197997 3.51708991 -12.10316563 2.08659645 -8.4375 0.75 C-7.48746094 0.39421875 -6.53742188 0.0384375 -5.55859375 -0.328125 C-3 -1 -3 -1 0 0 Z " fill="#BDC7DB" transform="translate(370,266)"/>
<path d="M0 0 C0.33 0.66 0.66 1.32 1 2 C-0.258125 2.268125 -1.51625 2.53625 -2.8125 2.8125 C-6.07150972 3.61144595 -7.83180072 4.34997865 -10 7 C-10.66 7 -11.32 7 -12 7 C-11.8125 4.625 -11.8125 4.625 -11 2 C-7.38684234 -0.16789459 -4.14058636 -0.19258541 0 0 Z " fill="#273C73" transform="translate(252,103)"/>
<path d="M0 0 C2.86724686 0.57344937 3.8614515 0.8614515 6 3 C6 3.99 6 4.98 6 6 C6.66 6 7.32 6 8 6 C8.33 6.99 8.66 7.98 9 9 C5.0873016 7.6957672 2.62689759 6.21065261 0 3 C0 2.01 0 1.02 0 0 Z " fill="#4F609F" transform="translate(128,440)"/>
<path d="M0 0 C0.33 0.66 0.66 1.32 1 2 C0.67 2.598125 0.34 3.19625 0 3.8125 C-1.27265288 6.59642818 -0.80300483 8.10918261 0 11 C-0.99 11 -1.98 11 -3 11 C-3.66 11.66 -4.32 12.32 -5 13 C-5.50477602 7.69985182 -4.20817314 5.18034682 -1 1 C-0.67 0.67 -0.34 0.34 0 0 Z " fill="#5C6CAB" transform="translate(270,367)"/>
<path d="M0 0 C5.61583419 4.08424305 10.15947441 9.23921161 14 15 C10.68580902 13.55097031 8.43407408 11.7319786 5.875 9.1875 C5.19179687 8.52105469 4.50859375 7.85460937 3.8046875 7.16796875 C1.89065763 4.86864715 0.95430817 2.81865249 0 0 Z " fill="#D8DDED" transform="translate(114,431)"/>
<path d="M0 0 C0.99 0.66 1.98 1.32 3 2 C2.34 4.64 1.68 7.28 1 10 C-0.32 9.67 -1.64 9.34 -3 9 C-2.67 7.02 -2.34 5.04 -2 3 C-1.34 3 -0.68 3 0 3 C0 2.01 0 1.02 0 0 Z " fill="#0B3071" transform="translate(475,261)"/>
<path d="M0 0 C1.4606285 2.64738916 2 3.89448334 2 7 C2.99 7.33 3.98 7.66 5 8 C4.67 9.98 4.34 11.96 4 14 C3.34 14 2.68 14 2 14 C0.02905192 9.07262981 -0.1799928 5.21979128 0 0 Z " fill="#A3AEC7" transform="translate(18,255)"/>
<path d="M0 0 C1.46080933 0.61919078 2.91857455 1.24556692 4.375 1.875 C5.18710938 2.22304688 5.99921875 2.57109375 6.8359375 2.9296875 C9 4 9 4 11 6 C3.25 7.125 3.25 7.125 1 6 C0.375 2.9375 0.375 2.9375 0 0 Z " fill="#334979" transform="translate(109,256)"/>
<path d="M0 0 C4.11583349 3.50608038 6.90567018 8.04628837 9 13 C8.67 13.66 8.34 14.32 8 15 C7.67 14.01 7.34 13.02 7 12 C4.98491642 11.26676204 4.98491642 11.26676204 3 11 C0.85714286 3.57142857 0.85714286 3.57142857 0 0 Z " fill="#B5C0D2" transform="translate(457,188)"/>
<path d="M0 0 C2 2 2 2 2.125 5.125 C2.08375 6.07375 2.0425 7.0225 2 8 C1.443125 8.061875 0.88625 8.12375 0.3125 8.1875 C-2.94987173 9.33373872 -4.68667874 11.49390197 -7 14 C-4.66666667 9.33333333 -2.33333333 4.66666667 0 0 Z " fill="#4157A2" transform="translate(54,173)"/>
<path d="M0 0 C0.99 0.495 0.99 0.495 2 1 C2 1.66 2 2.32 2 3 C2.66 3 3.32 3 4 3 C4.66 6.3 5.32 9.6 6 13 C5.01 13.495 5.01 13.495 4 14 C4 12.02 4 10.04 4 8 C3.34 8 2.68 8 2 8 C1.67 8.66 1.34 9.32 1 10 C0.67 6.7 0.34 3.4 0 0 Z " fill="#1A356A" transform="translate(416,121)"/>
<path d="M0 0 C2.9552728 2.61778794 4.75832727 5.67583335 6.75 9.0625 C7.38421875 10.12597656 8.0184375 11.18945312 8.671875 12.28515625 C9.11015625 13.18105469 9.5484375 14.07695313 10 15 C9.67 15.66 9.34 16.32 9 17 C8.16121545 15.71186658 7.32913217 14.41936744 6.5 13.125 C6.0359375 12.40570313 5.571875 11.68640625 5.09375 10.9453125 C4 9 4 9 4 7 C3.34 7 2.68 7 2 7 C0 4 0 4 0 0 Z " fill="#C8D2E0" transform="translate(390,72)"/>
<path d="M0 0 C7.26153846 0.36923077 7.26153846 0.36923077 11 3.5625 C11.99 4.7690625 11.99 4.7690625 13 6 C8.39146203 5.27991594 4.32762591 3.68704061 0 2 C0 1.34 0 0.68 0 0 Z " fill="#9EAABF" transform="translate(377,235)"/>
<path d="M0 0 C2 3 2 3 1.625 5.1875 C1.41875 5.785625 1.2125 6.38375 1 7 C1.99 6.67 2.98 6.34 4 6 C3.49396008 8.16874252 3.00016187 9.99967627 2 12 C1.34 12 0.68 12 0 12 C-0.19401633 10.18818595 -0.38004375 8.37551468 -0.5625 6.5625 C-0.66691406 5.55316406 -0.77132813 4.54382813 -0.87890625 3.50390625 C-0.91886719 2.67761719 -0.95882813 1.85132813 -1 1 C-0.67 0.67 -0.34 0.34 0 0 Z " fill="#5065AC" transform="translate(393,400)"/>
<path d="M0 0 C1.125 4.75 1.125 4.75 0 7 C-1.32 6.67 -2.64 6.34 -4 6 C-4.33 4.35 -4.66 2.7 -5 1 C-2 0 -2 0 0 0 Z " fill="#1C3679" transform="translate(30,272)"/>
<path d="M0 0 C0.66 0 1.32 0 2 0 C2 0.66 2 1.32 2 2 C3.32 2.66 4.64 3.32 6 4 C6 4.66 6 5.32 6 6 C7.32 6.66 8.64 7.32 10 8 C9.67 8.66 9.34 9.32 9 10 C3.97529326 7.62722182 2.43969017 4.78902145 0 0 Z " fill="#2A3F74" transform="translate(293,178)"/>
<path d="M0 0 C-0.6875 1.875 -0.6875 1.875 -2 4 C-4.5 5.125 -4.5 5.125 -7 6 C-7.66 6.66 -8.32 7.32 -9 8 C-9.99 8 -10.98 8 -12 8 C-10.77974937 4.3392481 -9.873509 4.07660559 -6.5625 2.3125 C-5.75941406 1.87550781 -4.95632813 1.43851562 -4.12890625 0.98828125 C-2 0 -2 0 0 0 Z " fill="#334789" transform="translate(326,291)"/>
<path d="M0 0 C2.97526665 2.55022856 4.50122302 5.40293526 6 9 C5.67 9.99 5.34 10.98 5 12 C2.5 9.9375 2.5 9.9375 0 7 C-0.3125 3.1875 -0.3125 3.1875 0 0 Z " fill="#9CA9C1" transform="translate(472,214)"/>
<path d="M0 0 C0.66 0.99 1.32 1.98 2 3 C-0.97 7.95 -0.97 7.95 -4 13 C-5 10 -5 10 -4.00390625 7.51953125 C-3.52824219 6.62621094 -3.05257813 5.73289062 -2.5625 4.8125 C-2.08941406 3.91144531 -1.61632812 3.01039063 -1.12890625 2.08203125 C-0.75636719 1.39496094 -0.38382812 0.70789063 0 0 Z " fill="#4C5C95" transform="translate(427,353)"/>
<path d="M0 0 C0.66 0.33 1.32 0.66 2 1 C-0.97 4.96 -0.97 4.96 -4 9 C-4.66 8.34 -5.32 7.68 -6 7 C-4.6875 4.0625 -4.6875 4.0625 -3 1 C-2.01 0.67 -1.02 0.34 0 0 Z " fill="#31477B" transform="translate(208,177)"/>
<path d="M0 0 C3.29078593 2.79716804 5.06305458 6.19528578 7 10 C6.67 10.66 6.34 11.32 6 12 C5.195625 11.175 4.39125 10.35 3.5625 9.5 C1.47736982 6.88361269 1.47736982 6.88361269 0 7 C0 4.69 0 2.38 0 0 Z " fill="#AAB6CA" transform="translate(441,160)"/>
<path d="M0 0 C0.33 0 0.66 0 1 0 C1.34858377 4.88017275 0.48426393 7.79586103 -2 12 C-2.66 12.66 -3.32 13.32 -4 14 C-3.21824485 9.15311808 -1.60155722 4.6233633 0 0 Z " fill="#526099" transform="translate(275,350)"/>
<path d="M0 0 C3 1 3 1 4.75 3.8125 C6.05483179 7.13982105 6.02866653 7.79584277 5 11 C4.16151196 9.54462432 3.32936066 8.08559627 2.5 6.625 C1.80390625 5.40683594 1.80390625 5.40683594 1.09375 4.1640625 C0 2 0 2 0 0 Z " fill="#314375" transform="translate(45,309)"/>
<path d="M0 0 C2.0625 0.4375 2.0625 0.4375 4 1 C3.6875 3.375 3.6875 3.375 3 6 C2.01 6.66 1.02 7.32 0 8 C-0.33 7.01 -0.66 6.02 -1 5 C-0.34 5 0.32 5 1 5 C0.34 3.68 -0.32 2.36 -1 1 C-0.67 0.67 -0.34 0.34 0 0 Z " fill="#183772" transform="translate(449,180)"/>
<path d="M0 0 C3.29078593 2.79716804 5.06305458 6.19528578 7 10 C6.67 10.66 6.34 11.32 6 12 C5.67 11.01 5.34 10.02 5 9 C2.98491642 8.26676204 2.98491642 8.26676204 1 8 C0.67 5.36 0.34 2.72 0 0 Z " fill="#B2BDCF" transform="translate(448,172)"/>
<path d="M0 0 C0.33 0.99 0.66 1.98 1 3 C0.3503125 3.5878125 0.3503125 3.5878125 -0.3125 4.1875 C-2.14560261 6.02238902 -2.14560261 6.02238902 -3.5625 8.6875 C-4.2740625 9.8321875 -4.2740625 9.8321875 -5 11 C-5.66 11 -6.32 11 -7 11 C-4 2 -4 2 -1.9375 0.8125 C-1.298125 0.544375 -0.65875 0.27625 0 0 Z " fill="#203B7C" transform="translate(223,151)"/>
<path d="M0 0 C0.66 0 1.32 0 2 0 C2 3.96 2 7.92 2 12 C1.01 11.67 0.02 11.34 -1 11 C-1 10.01 -1 9.02 -1 8 C-0.34 8 0.32 8 1 8 C0.34 7.01 -0.32 6.02 -1 5 C-0.625 2.3125 -0.625 2.3125 0 0 Z " fill="#203B80" transform="translate(234,113)"/>
<path d="M0 0 C0.66 0.33 1.32 0.66 2 1 C1.690625 1.5775 1.38125 2.155 1.0625 2.75 C0.07416636 4.84294184 -0.5168613 6.74535275 -1 9 C-2.32 9 -3.64 9 -5 9 C-4.1875 6.5625 -4.1875 6.5625 -3 4 C-2.01 3.67 -1.02 3.34 0 3 C0 2.01 0 1.02 0 0 Z " fill="#6475A5" transform="translate(395,409)"/>
<path d="M0 0 C0.66 0 1.32 0 2 0 C2.25 3.3125 2.25 3.3125 2 7 C0.68 7.99 -0.64 8.98 -2 10 C-1.34 6.7 -0.68 3.4 0 0 Z " fill="#939CC3" transform="translate(269,360)"/>
<path d="M0 0 C2.625 0.9375 2.625 0.9375 5 2 C5 3.32 5 4.64 5 6 C1.34683329 4.75023244 0.21934164 4.32901247 -2 1 C-1.34 0.67 -0.68 0.34 0 0 Z " fill="#193371" transform="translate(331,210)"/>
<path d="M0 0 C3.44868587 4.08733141 6.23793154 8.43805907 9 13 C5.6227555 11.60724746 4.12929695 10.17726069 2.25 7.0625 C1.82203125 6.37285156 1.3940625 5.68320313 0.953125 4.97265625 C0 3 0 3 0 0 Z " fill="#BCC4DA" transform="translate(282,163)"/>
<path d="M0 0 C3.08089673 2.77280706 4.68775452 5.06326356 6 9 C4.68 9 3.36 9 2 9 C0.50178941 5.62902617 0 3.79557881 0 0 Z " fill="#253A78" transform="translate(274,143)"/>
<path d="M0 0 C1.32 0 2.64 0 4 0 C3.25 5.75 3.25 5.75 1 8 C0.34 5.69 -0.32 3.38 -1 1 C-0.67 0.67 -0.34 0.34 0 0 Z " fill="#405685" transform="translate(232,125)"/>
<path d="M0 0 C1.32 0.33 2.64 0.66 4 1 C4.12375 1.639375 4.2475 2.27875 4.375 2.9375 C4.684375 3.9584375 4.684375 3.9584375 5 5 C5.66 5.33 6.32 5.66 7 6 C7.33 6.99 7.66 7.98 8 9 C4.63704165 7.55873214 2.37072898 5.79407345 0 3 C0 2.01 0 1.02 0 0 Z " fill="#183278" transform="translate(280,156)"/>
<path d="M0 0 C2.375 0.625 2.375 0.625 5 2 C6.3125 5.125 6.3125 5.125 7 8 C6.34 7.67 5.68 7.34 5 7 C5 6.34 5 5.68 5 5 C3.68 4.67 2.36 4.34 1 4 C0.67 2.68 0.34 1.36 0 0 Z " fill="#8392B3" transform="translate(423,133)"/>
<path d="M0 0 C0.66 0.33 1.32 0.66 2 1 C0.35 3.64 -1.3 6.28 -3 9 C-3.66 8.67 -4.32 8.34 -5 8 C-2.25 1.125 -2.25 1.125 0 0 Z " fill="#304789" transform="translate(312,300)"/>
<path d="M0 0 C2.31 1.98 4.62 3.96 7 6 C5.68 6.33 4.36 6.66 3 7 C2.34 6.01 1.68 5.02 1 4 C-1.05003955 2.80767387 -1.05003955 2.80767387 -3 2 C-2.01 2 -1.02 2 0 2 C0 1.34 0 0.68 0 0 Z " fill="#465C8A" transform="translate(190,299)"/>
<path d="M0 0 C3.37462715 0.54723683 5.08235 1.0549 8 3 C8 3.66 8 4.32 8 5 C7.01 5.33 6.02 5.66 5 6 C5 5.01 5 4.02 5 3 C3.68 3 2.36 3 1 3 C0.67 2.01 0.34 1.02 0 0 Z " fill="#223E76" transform="translate(143,271)"/>
<path d="M0 0 C0.66 0.99 1.32 1.98 2 3 C1.125 5.6875 1.125 5.6875 0 8 C-0.99 7.67 -1.98 7.34 -3 7 C-3 5.68 -3 4.36 -3 3 C-2.34 3 -1.68 3 -1 3 C-0.67 2.01 -0.34 1.02 0 0 Z " fill="#5A70BD" transform="translate(94,104)"/>
<path d="M0 0 C1.65 0.33 3.3 0.66 5 1 C4 3 4 3 2 6 C0.68 5.34 -0.64 4.68 -2 4 C-1.34 2.68 -0.68 1.36 0 0 Z " fill="#244188" transform="translate(442,320)"/>
<path d="M0 0 C1.32 0.33 2.64 0.66 4 1 C3.67 2.32 3.34 3.64 3 5 C1.35 4.67 -0.3 4.34 -2 4 C-1.34 2.68 -0.68 1.36 0 0 Z " fill="#254180" transform="translate(165,282)"/>
<path d="M0 0 C-0.3125 1.9375 -0.3125 1.9375 -1 4 C-1.99 4.33 -2.98 4.66 -4 5 C-6.1875 3.5625 -6.1875 3.5625 -8 2 C-2.25 0 -2.25 0 0 0 Z " fill="#40518B" transform="translate(378,263)"/>
<path d="M0 0 C3.71888239 0.50712033 6.73454239 1.11608215 10 3 C10 3.66 10 4.32 10 5 C9.34 5 8.68 5 8 5 C8 4.34 8 3.68 8 3 C7.05125 3.020625 6.1025 3.04125 5.125 3.0625 C2 3 2 3 0 2 C0 1.34 0 0.68 0 0 Z " fill="#2C3F78" transform="translate(343,220)"/>
<path d="M0 0 C0.99 0 1.98 0 3 0 C5 3 5 3 5 6 C2.525 5.01 2.525 5.01 0 4 C0 2.68 0 1.36 0 0 Z " fill="#2B4276" transform="translate(425,138)"/>
<path d="M0 0 C0.66 0 1.32 0 2 0 C2 1.65 2 3.3 2 5 C1.01 5.495 1.01 5.495 0 6 C0 4.02 0 2.04 0 0 Z M-2 5 C-1.34 5.66 -0.68 6.32 0 7 C-1.32 7.99 -2.64 8.98 -4 10 C-3.34 8.35 -2.68 6.7 -2 5 Z " fill="#6176BA" transform="translate(106,81)"/>
<path d="M0 0 C2.31 0 4.62 0 7 0 C5.25 2 5.25 2 3 4 C1.68 4 0.36 4 -1 4 C-0.67 2.68 -0.34 1.36 0 0 Z " fill="#687DC3" transform="translate(353,448)"/>
<path d="M0 0 C0.99 0 1.98 0 3 0 C3.99 2.31 4.98 4.62 6 7 C3.53199953 5.84826645 1.95216435 4.95216435 0 3 C0 2.01 0 1.02 0 0 Z " fill="#6373A5" transform="translate(124,439)"/>
<path d="M0 0 C2.95183101 2.95183101 3.08663988 5.95511947 4 10 C1 9 1 9 -0.25 6.6875 C-1.0275526 3.90126985 -0.98726527 2.66561622 0 0 Z " fill="#5B699B" transform="translate(226,348)"/>
<path d="M0 0 C1.32 0.66 2.64 1.32 4 2 C4 3.65 4 5.3 4 7 C2.0625 6.1875 2.0625 6.1875 0 5 C-0.33 4.01 -0.66 3.02 -1 2 C-0.67 1.34 -0.34 0.68 0 0 Z " fill="#253C77" transform="translate(52,319)"/>
<path d="M0 0 C-1.23944276 0.86941494 -2.49207059 1.72005457 -3.75 2.5625 C-4.44609375 3.03816406 -5.1421875 3.51382812 -5.859375 4.00390625 C-8 5 -8 5 -10.265625 4.65234375 C-10.83796875 4.43707031 -11.4103125 4.22179687 -12 4 C-10.56988027 3.13353333 -9.13059381 2.28218171 -7.6875 1.4375 C-6.48673828 0.72400391 -6.48673828 0.72400391 -5.26171875 -0.00390625 C-3 -1 -3 -1 0 0 Z " fill="#CFD7E5" transform="translate(352,273)"/>
<path d="M0 0 C0 0.66 0 1.32 0 2 C0.66 2.33 1.32 2.66 2 3 C0.865625 3.12375 -0.26875 3.2475 -1.4375 3.375 C-3.2009375 3.684375 -3.2009375 3.684375 -5 4 C-5.33 4.66 -5.66 5.32 -6 6 C-5.67 4.35 -5.34 2.7 -5 1 C-2 0 -2 0 0 0 Z " fill="#1F3B7E" transform="translate(118,233)"/>
<path d="M0 0 C-0.639375 0.103125 -1.27875 0.20625 -1.9375 0.3125 C-2.9584375 0.6528125 -2.9584375 0.6528125 -4 1 C-4.33 1.99 -4.66 2.98 -5 4 C-5.99 4 -6.98 4 -8 4 C-7.625 2.0625 -7.625 2.0625 -7 0 C-4.3333581 -1.33332095 -2.83319697 -0.67102033 0 0 Z " fill="#233D7B" transform="translate(147,225)"/>
<path d="M0 0 C0.99 0.33 1.98 0.66 3 1 C3.33 2.98 3.66 4.96 4 7 C3.34 7 2.68 7 2 7 C1.67 7.66 1.34 8.32 1 9 C0.67 6.03 0.34 3.06 0 0 Z " fill="#627499" transform="translate(453,183)"/>
<path d="M0 0 C0.99 0 1.98 0 3 0 C2.34 1.65 1.68 3.3 1 5 C-1.64 4.67 -4.28 4.34 -7 4 C-4.92446352 3.4465236 -3.15634036 3 -1 3 C-0.67 2.01 -0.34 1.02 0 0 Z " fill="#5366AB" transform="translate(151,449)"/>
<path d="M0 0 C0.33 0.66 0.66 1.32 1 2 C1.66 2 2.32 2 3 2 C3 3.65 3 5.3 3 7 C1.68 6.34 0.36 5.68 -1 5 C-0.67 3.35 -0.34 1.7 0 0 Z " fill="#2F477D" transform="translate(68,345)"/>
<path d="M0 0 C2.97 0.33 5.94 0.66 9 1 C9 1.99 9 2.98 9 4 C8.01 4.495 8.01 4.495 7 5 C7 4.34 7 3.68 7 3 C4.69 2.34 2.38 1.68 0 1 C0 0.67 0 0.34 0 0 Z " fill="#213B6D" transform="translate(116,262)"/>
<path d="M0 0 C1.5625 1.25 1.5625 1.25 3 3 C2.6875 5.1875 2.6875 5.1875 2 7 C1.01 7 0.02 7 -1 7 C-0.67 4.69 -0.34 2.38 0 0 Z " fill="#1B356C" transform="translate(107,255)"/>
<path d="M0 0 C1.15941038 3.47823115 0.70820884 5.45895578 0 9 C-0.66 9 -1.32 9 -2 9 C-2 6.36 -2 3.72 -2 1 C-1.34 0.67 -0.68 0.34 0 0 Z " fill="#223E80" transform="translate(21,245)"/>
<path d="M0 0 C6.0546875 0.390625 6.0546875 0.390625 8 1 C9.2578125 3.046875 9.2578125 3.046875 10 5 C8.51800098 4.55090939 7.03944764 4.09043436 5.5625 3.625 C4.73878906 3.36976563 3.91507812 3.11453125 3.06640625 2.8515625 C1 2 1 2 0 0 Z " fill="#B4B9D1" transform="translate(343,222)"/>
<path d="M0 0 C0.33 0 0.66 0 1 0 C1 1.98 1 3.96 1 6 C-0.98 6.99 -0.98 6.99 -3 8 C-2.45276317 4.62537285 -1.9451 2.91765 0 0 Z " fill="#465991" transform="translate(27,216)"/>
<path d="M0 0 C3 2 3 2 3.51171875 3.9453125 C3.67447917 5.96354167 3.83723958 7.98177083 4 10 C3.34 10 2.68 10 2 10 C2 8.35 2 6.7 2 5 C1.34 5 0.68 5 0 5 C-0.5625 3.0625 -0.5625 3.0625 -1 1 C-0.67 0.67 -0.34 0.34 0 0 Z " fill="#113469" transform="translate(463,203)"/>
<path d="M0 0 C2.61500768 2.36595933 4.38999603 4.86049226 6 8 C5.67 8.66 5.34 9.32 5 10 C4.67 9.01 4.34 8.02 4 7 C3.34 7 2.68 7 2 7 C0 4 0 4 0 0 Z " fill="#C1C7D8" transform="translate(416,117)"/>
<path d="M0 0 C0.33 0.66 0.66 1.32 1 2 C2.65 1.67 4.3 1.34 6 1 C6.66 1.99 7.32 2.98 8 4 C4.37673261 5.2077558 3.35853631 4.54311128 0 3 C0 2.01 0 1.02 0 0 Z " fill="#4359A2" transform="translate(112,423)"/>
<path d="M0 0 C2.46278801 2.46278801 2.99771255 4.70676982 4 8 C3.01 8.495 3.01 8.495 2 9 C1.34 8.67 0.68 8.34 0 8 C0 5.36 0 2.72 0 0 Z " fill="#94A0C4" transform="translate(241,384)"/>
<path d="M0 0 C0.66 0.33 1.32 0.66 2 1 C0.8141763 4.37503669 -0.27573689 6.64722731 -3 9 C-2.67 7.02 -2.34 5.04 -2 3 C-1.34 3 -0.68 3 0 3 C0 2.01 0 1.02 0 0 Z " fill="#576795" transform="translate(414,376)"/>
<path d="M0 0 C0.66 0 1.32 0 2 0 C2.66 1.65 3.32 3.3 4 5 C1.50907189 6.24546405 0.58919267 5.7767578 -2 5 C-2 3 -2 3 0 1 C0 0.67 0 0.34 0 0 Z " fill="#284286" transform="translate(195,306)"/>
<path d="M0 0 C2.31 1.65 4.62 3.3 7 5 C6.01 5.495 6.01 5.495 5 6 C4.01 5.67 3.02 5.34 2 5 C1.67 5.66 1.34 6.32 1 7 C0.67 4.69 0.34 2.38 0 0 Z " fill="#455C8B" transform="translate(183,293)"/>
<path d="M0 0 C1.485 0.99 1.485 0.99 3 2 C2.625 4.9375 2.625 4.9375 2 8 C1.01 8.495 1.01 8.495 0 9 C0 6.03 0 3.06 0 0 Z " fill="#0F326A" transform="translate(457,193)"/>
<path d="M0 0 C0.66 0.99 1.32 1.98 2 3 C1.01 4.485 1.01 4.485 0 6 C-0.66 6 -1.32 6 -2 6 C-2.33 7.32 -2.66 8.64 -3 10 C-4 7 -4 7 -3.22265625 5.17578125 C-2.1484375 3.45052083 -1.07421875 1.72526042 0 0 Z " fill="#57669C" transform="translate(40,193)"/>
<path d="M0 0 C2.475 0.495 2.475 0.495 5 1 C5.33 2.98 5.66 4.96 6 7 C1.125 2.25 1.125 2.25 0 0 Z " fill="#3A4F7B" transform="translate(300,187)"/>
<path d="M0 0 C0.8125 1.625 0.8125 1.625 1 4 C-0.46818136 6.24609835 -2.15852858 8.02378677 -4 10 C-4 5.75354935 -2.18249194 3.61475228 0 0 Z " fill="#CBD2E6" transform="translate(51,172)"/>
<path d="M0 0 C0.99 0 1.98 0 3 0 C2.67 0.99 2.34 1.98 2 3 C1.34 3 0.68 3 0 3 C0 3.66 0 4.32 0 5 C-0.99 5.33 -1.98 5.66 -3 6 C-3 4.68 -3 3.36 -3 2 C-2.01 2 -1.02 2 0 2 C0 1.34 0 0.68 0 0 Z " fill="#5D75BC" transform="translate(100,94)"/>
<path d="M0 0 C2.99324263 1.0975223 3.84610901 1.67682892 5.25 4.625 C5.4975 5.40875 5.745 6.1925 6 7 C3.5625 6.3125 3.5625 6.3125 1 5 C0.1875 2.375 0.1875 2.375 0 0 Z " fill="#7483A1" transform="translate(384,65)"/>
<path d="M0 0 C1.65 0 3.3 0 5 0 C2.79072873 3.48832306 0.91402949 4.73058503 -3 6 C-2.67 5.01 -2.34 4.02 -2 3 C-1.34 3 -0.68 3 0 3 C0 2.01 0 1.02 0 0 Z " fill="#6075C0" transform="translate(129,52)"/>
<path d="M0 0 C0.99 0.33 1.98 0.66 3 1 C2.34 1 1.68 1 1 1 C0.34 2.65 -0.32 4.3 -1 6 C-1.66 5.67 -2.32 5.34 -3 5 C-2.625 3.0625 -2.625 3.0625 -2 1 C-1.34 0.67 -0.68 0.34 0 0 Z " fill="#1B3A75" transform="translate(107,240)"/>
<path d="M0 0 C0.99 0.99 1.98 1.98 3 3 C2.34 4.98 1.68 6.96 1 9 C0.67 9 0.34 9 0 9 C0 6.03 0 3.06 0 0 Z " fill="#374F97" transform="translate(28,214)"/>
<path d="M0 0 C0.33 0 0.66 0 1 0 C1 1.98 1 3.96 1 6 C-0.32 6.33 -1.64 6.66 -3 7 C-1.125 2.25 -1.125 2.25 0 0 Z " fill="#4E5F98" transform="translate(35,202)"/>
<path d="M0 0 C0 3.59857954 -0.95830515 5.09451118 -3 8 C-3.66 8 -4.32 8 -5 8 C-3.8141763 4.62496331 -2.72426311 2.35277269 0 0 Z " fill="#536297" transform="translate(48,182)"/>
<path d="M0 0 C0.66 0.33 1.32 0.66 2 1 C1.34 2.98 0.68 4.96 0 7 C-0.66 7 -1.32 7 -2 7 C-2.125 4.625 -2.125 4.625 -2 2 C-1.34 1.34 -0.68 0.68 0 0 Z " fill="#556DB8" transform="translate(85,120)"/>
</svg>
